<svg width="945" height="378" xmlns="http://www.w3.org/2000/svg" xmlns:xlink="http://www.w3.org/1999/xlink" overflow="hidden"><defs><filter id="fx0" x="-10%" y="-10%" width="120%" height="120%" filterUnits="userSpaceOnUse" primitiveUnits="userSpaceOnUse"><feComponentTransfer color-interpolation-filters="sRGB"><feFuncR type="discrete" tableValues="0 0"/><feFuncG type="discrete" tableValues="0 0"/><feFuncB type="discrete" tableValues="0 0"/><feFuncA type="linear" slope="0.301961" intercept="0"/></feComponentTransfer><feGaussianBlur stdDeviation="0.984776 0.984603"/></filter><clipPath id="clip1"><rect x="0" y="0" width="945" height="378"/></clipPath><linearGradient x1="346.321" y1="161.631" x2="363.124" y2="146.681" gradientUnits="userSpaceOnUse" spreadMethod="reflect" id="stroke2"><stop offset="0" stop-color="#0037E6"/><stop offset="0.00917431" stop-color="#0136E5"/><stop offset="0.0183486" stop-color="#0336E5"/><stop offset="0.0275229" stop-color="#0536E5"/><stop offset="0.0366972" stop-color="#0736E5"/><stop offset="0.0458716" stop-color="#0936E5"/><stop offset="0.0550459" stop-color="#0B36E5"/><stop offset="0.0642202" stop-color="#0C36E5"/><stop offset="0.0733945" stop-color="#0E36E5"/><stop offset="0.0825688" stop-color="#1036E5"/><stop offset="0.0917431" stop-color="#1236E5"/><stop offset="0.100917" stop-color="#1336E5"/><stop offset="0.110092" stop-color="#1536E4"/><stop offset="0.119266" stop-color="#1736E4"/><stop offset="0.12844" stop-color="#1836E4"/><stop offset="0.137615" stop-color="#1A36E4"/><stop offset="0.146789" stop-color="#1C36E4"/><stop offset="0.155963" stop-color="#1D36E3"/><stop offset="0.165138" stop-color="#1F36E3"/><stop offset="0.174312" stop-color="#2136E3"/><stop offset="0.183486" stop-color="#2236E3"/><stop offset="0.192661" stop-color="#2436E2"/><stop offset="0.201835" stop-color="#2536E2"/><stop offset="0.211009" stop-color="#2736E2"/><stop offset="0.220183" stop-color="#2836E1"/><stop offset="0.229358" stop-color="#2A36E1"/><stop offset="0.238532" stop-color="#2C36E1"/><stop offset="0.247706" stop-color="#2D36E0"/><stop offset="0.256881" stop-color="#2E36E0"/><stop offset="0.266055" stop-color="#3036DF"/><stop offset="0.275229" stop-color="#3136DF"/><stop offset="0.284404" stop-color="#3336DF"/><stop offset="0.293578" stop-color="#3436DE"/><stop offset="0.302752" stop-color="#3636DE"/><stop offset="0.311927" stop-color="#3735DD"/><stop offset="0.321101" stop-color="#3835DD"/><stop offset="0.330275" stop-color="#3A35DC"/><stop offset="0.33945" stop-color="#3B35DC"/><stop offset="0.348624" stop-color="#3C35DC"/><stop offset="0.357798" stop-color="#3E35DB"/><stop offset="0.366972" stop-color="#3F35DB"/><stop offset="0.376147" stop-color="#4035DA"/><stop offset="0.385321" stop-color="#4135D9"/><stop offset="0.394495" stop-color="#4335D9"/><stop offset="0.40367" stop-color="#4435D8"/><stop offset="0.412844" stop-color="#4535D8"/><stop offset="0.422018" stop-color="#4635D7"/><stop offset="0.431193" stop-color="#4735D7"/><stop offset="0.440367" stop-color="#4835D6"/><stop offset="0.449541" stop-color="#4A34D5"/><stop offset="0.458716" stop-color="#4B34D5"/><stop offset="0.46789" stop-color="#4C34D4"/><stop offset="0.477064" stop-color="#4D34D4"/><stop offset="0.486239" stop-color="#4E34D3"/><stop offset="0.495413" stop-color="#4F34D2"/><stop offset="0.504587" stop-color="#5034D2"/><stop offset="0.513761" stop-color="#5134D1"/><stop offset="0.522936" stop-color="#5234D0"/><stop offset="0.53211" stop-color="#5334CF"/><stop offset="0.541284" stop-color="#5434CF"/><stop offset="0.550459" stop-color="#5534CE"/><stop offset="0.559633" stop-color="#5633CD"/><stop offset="0.568807" stop-color="#5733CD"/><stop offset="0.577982" stop-color="#5833CC"/><stop offset="0.587156" stop-color="#5933CB"/><stop offset="0.59633" stop-color="#5933CA"/><stop offset="0.605505" stop-color="#5A33C9"/><stop offset="0.614679" stop-color="#5B33C9"/><stop offset="0.623853" stop-color="#5C33C8"/><stop offset="0.633027" stop-color="#5D33C7"/><stop offset="0.642202" stop-color="#5D33C6"/><stop offset="0.651376" stop-color="#5E32C5"/><stop offset="0.66055" stop-color="#5F32C4"/><stop offset="0.669725" stop-color="#6032C4"/><stop offset="0.678899" stop-color="#6032C3"/><stop offset="0.688073" stop-color="#6132C2"/><stop offset="0.697248" stop-color="#6232C1"/><stop offset="0.706422" stop-color="#6232C0"/><stop offset="0.715596" stop-color="#6332BF"/><stop offset="0.724771" stop-color="#6432BE"/><stop offset="0.733945" stop-color="#6431BD"/><stop offset="0.743119" stop-color="#6531BC"/><stop offset="0.752294" stop-color="#6531BB"/><stop offset="0.761468" stop-color="#6631BA"/><stop offset="0.770642" stop-color="#6731B9"/><stop offset="0.779817" stop-color="#6731B8"/><stop offset="0.788991" stop-color="#6831B7"/><stop offset="0.798165" stop-color="#6831B6"/><stop offset="0.807339" stop-color="#6830B5"/><stop offset="0.816514" stop-color="#6930B4"/><stop offset="0.825688" stop-color="#6930B3"/><stop offset="0.834862" stop-color="#6A30B2"/><stop offset="0.844037" stop-color="#6A30B1"/><stop offset="0.853211" stop-color="#6A30B0"/><stop offset="0.862385" stop-color="#6B30AF"/><stop offset="0.87156" stop-color="#6B30AE"/><stop offset="0.880734" stop-color="#6B2FAD"/><stop offset="0.889908" stop-color="#6C2FAC"/><stop offset="0.899083" stop-color="#6C2FAB"/><stop offset="0.908257" stop-color="#6C2FA9"/><stop offset="0.917431" stop-color="#6C2FA8"/><stop offset="0.926606" stop-color="#6D2FA7"/><stop offset="0.93578" stop-color="#6D2FA6"/><stop offset="0.944954" stop-color="#6D2EA5"/><stop offset="0.954128" stop-color="#6D2EA4"/><stop offset="0.963303" stop-color="#6D2EA2"/><stop offset="0.972477" stop-color="#6D2EA1"/><stop offset="0.981651" stop-color="#6D2EA0"/><stop offset="0.990826" stop-color="#6D2E9F"/><stop offset="1" stop-color="#6E2E9E"/></linearGradient><linearGradient x1="374.891" y1="136.212" x2="391.693" y2="121.262" gradientUnits="userSpaceOnUse" spreadMethod="reflect" id="stroke3"><stop offset="0" stop-color="#6E2E9E"/><stop offset="0.0227273" stop-color="#6F2E9D"/><stop offset="0.0454545" stop-color="#712E9D"/><stop offset="0.0681818" stop-color="#732E9D"/><stop offset="0.0909091" stop-color="#752E9D"/><stop offset="0.113636" stop-color="#772E9D"/><stop offset="0.136364" stop-color="#782E9D"/><stop offset="0.159091" stop-color="#7A2E9D"/><stop offset="0.181818" stop-color="#7C2E9C"/><stop offset="0.204545" stop-color="#7D2F9C"/><stop offset="0.227273" stop-color="#7F2F9C"/><stop offset="0.25" stop-color="#802F9B"/><stop offset="0.272727" stop-color="#822F9B"/><stop offset="0.295455" stop-color="#832F9A"/><stop offset="0.318182" stop-color="#852F9A"/><stop offset="0.340909" stop-color="#862F99"/><stop offset="0.363636" stop-color="#872F99"/><stop offset="0.386364" stop-color="#882F98"/><stop offset="0.409091" stop-color="#8A2F98"/><stop offset="0.431818" stop-color="#8B2F97"/><stop offset="0.454545" stop-color="#8C3096"/><stop offset="0.477273" stop-color="#8D3096"/><stop offset="0.5" stop-color="#8E3095"/><stop offset="0.522727" stop-color="#8F3094"/><stop offset="0.545455" stop-color="#903094"/><stop offset="0.568182" stop-color="#913093"/><stop offset="0.590909" stop-color="#923092"/><stop offset="0.613636" stop-color="#933091"/><stop offset="0.636364" stop-color="#943090"/><stop offset="0.659091" stop-color="#95308F"/><stop offset="0.681818" stop-color="#95308E"/><stop offset="0.704545" stop-color="#96308D"/><stop offset="0.727273" stop-color="#97308C"/><stop offset="0.75" stop-color="#97308B"/><stop offset="0.772727" stop-color="#98308A"/><stop offset="0.795455" stop-color="#983089"/><stop offset="0.818182" stop-color="#993088"/><stop offset="0.840909" stop-color="#993087"/><stop offset="0.863636" stop-color="#993086"/><stop offset="0.886364" stop-color="#9A3085"/><stop offset="0.909091" stop-color="#9A3084"/><stop offset="0.931818" stop-color="#9A3082"/><stop offset="0.954545" stop-color="#9A3081"/><stop offset="0.977273" stop-color="#9A3080"/><stop offset="1" stop-color="#9B317F"/></linearGradient><linearGradient x1="306.355" y1="197.136" x2="323.158" y2="182.187" gradientUnits="userSpaceOnUse" spreadMethod="reflect" id="stroke4"><stop offset="0" stop-color="#23C3B4"/><stop offset="0.7" stop-color="#1B96AF"/><stop offset="1" stop-color="#1B96AF"/></linearGradient><linearGradient x1="334.874" y1="171.583" x2="351.676" y2="156.633" gradientUnits="userSpaceOnUse" spreadMethod="reflect" id="stroke5"><stop offset="0" stop-color="#1B96AF"/><stop offset="0.0106383" stop-color="#1A95B0"/><stop offset="0.0212766" stop-color="#1A95B1"/><stop offset="0.0319149" stop-color="#1A95B2"/><stop offset="0.0425532" stop-color="#1A95B3"/><stop offset="0.0531915" stop-color="#1A95B4"/><stop offset="0.0638298" stop-color="#1A95B5"/><stop offset="0.0744681" stop-color="#1A95B6"/><stop offset="0.0851064" stop-color="#1A95B7"/><stop offset="0.0957447" stop-color="#1A94B8"/><stop offset="0.106383" stop-color="#1A94B9"/><stop offset="0.117021" stop-color="#1A94BA"/><stop offset="0.12766" stop-color="#1A93BB"/><stop offset="0.138298" stop-color="#1A93BC"/><stop offset="0.148936" stop-color="#1A93BD"/><stop offset="0.159574" stop-color="#1A92BE"/><stop offset="0.170213" stop-color="#1A92BF"/><stop offset="0.180851" stop-color="#1992C0"/><stop offset="0.191489" stop-color="#1991C1"/><stop offset="0.202128" stop-color="#1991C1"/><stop offset="0.212766" stop-color="#1990C2"/><stop offset="0.223404" stop-color="#1990C3"/><stop offset="0.234043" stop-color="#198FC4"/><stop offset="0.244681" stop-color="#198FC5"/><stop offset="0.255319" stop-color="#188EC6"/><stop offset="0.265957" stop-color="#188EC7"/><stop offset="0.276596" stop-color="#188DC8"/><stop offset="0.287234" stop-color="#188CC8"/><stop offset="0.297872" stop-color="#188CC9"/><stop offset="0.308511" stop-color="#188BCA"/><stop offset="0.319149" stop-color="#178ACB"/><stop offset="0.329787" stop-color="#178ACC"/><stop offset="0.340426" stop-color="#1789CC"/><stop offset="0.351064" stop-color="#1788CD"/><stop offset="0.361702" stop-color="#1687CE"/><stop offset="0.37234" stop-color="#1687CF"/><stop offset="0.382979" stop-color="#1686CF"/><stop offset="0.393617" stop-color="#1685D0"/><stop offset="0.404255" stop-color="#1684D1"/><stop offset="0.414894" stop-color="#1583D1"/><stop offset="0.425532" stop-color="#1582D2"/><stop offset="0.43617" stop-color="#1581D3"/><stop offset="0.446809" stop-color="#1581D3"/><stop offset="0.457447" stop-color="#1480D4"/><stop offset="0.468085" stop-color="#147FD5"/><stop offset="0.478723" stop-color="#147ED5"/><stop offset="0.489362" stop-color="#137DD6"/><stop offset="0.5" stop-color="#137CD7"/><stop offset="0.510638" stop-color="#137BD7"/><stop offset="0.521277" stop-color="#1379D8"/><stop offset="0.531915" stop-color="#1278D8"/><stop offset="0.542553" stop-color="#1277D9"/><stop offset="0.553191" stop-color="#1276D9"/><stop offset="0.56383" stop-color="#1175DA"/><stop offset="0.574468" stop-color="#1174DA"/><stop offset="0.585106" stop-color="#1173DB"/><stop offset="0.595745" stop-color="#1072DB"/><stop offset="0.606383" stop-color="#1070DC"/><stop offset="0.617021" stop-color="#106FDC"/><stop offset="0.62766" stop-color="#0F6EDD"/><stop offset="0.638298" stop-color="#0F6DDD"/><stop offset="0.648936" stop-color="#0E6BDE"/><stop offset="0.659574" stop-color="#0E6ADE"/><stop offset="0.670213" stop-color="#0E69DF"/><stop offset="0.680851" stop-color="#0D67DF"/><stop offset="0.691489" stop-color="#0D66DF"/><stop offset="0.702128" stop-color="#0D65E0"/><stop offset="0.712766" stop-color="#0C63E0"/><stop offset="0.723404" stop-color="#0C62E1"/><stop offset="0.734043" stop-color="#0B60E1"/><stop offset="0.744681" stop-color="#0B5FE1"/><stop offset="0.755319" stop-color="#0B5DE2"/><stop offset="0.765957" stop-color="#0A5CE2"/><stop offset="0.776596" stop-color="#0A5AE2"/><stop offset="0.787234" stop-color="#0959E2"/><stop offset="0.797872" stop-color="#0957E3"/><stop offset="0.808511" stop-color="#0856E3"/><stop offset="0.819149" stop-color="#0854E3"/><stop offset="0.829787" stop-color="#0753E4"/><stop offset="0.840426" stop-color="#0751E4"/><stop offset="0.851064" stop-color="#074FE4"/><stop offset="0.861702" stop-color="#064EE4"/><stop offset="0.87234" stop-color="#064CE4"/><stop offset="0.882979" stop-color="#054AE5"/><stop offset="0.893617" stop-color="#0549E5"/><stop offset="0.904255" stop-color="#0447E5"/><stop offset="0.914894" stop-color="#0445E5"/><stop offset="0.925532" stop-color="#0343E5"/><stop offset="0.93617" stop-color="#0342E5"/><stop offset="0.946809" stop-color="#0240E5"/><stop offset="0.957447" stop-color="#023EE5"/><stop offset="0.968085" stop-color="#013CE5"/><stop offset="0.978723" stop-color="#013AE5"/><stop offset="0.989362" stop-color="#0038E5"/><stop offset="1" stop-color="#0037E6"/></linearGradient><clipPath id="clip6"><rect x="0" y="1" width="83" height="55"/></clipPath><clipPath id="clip7"><rect x="0" y="0" width="84" height="56"/></clipPath><linearGradient x1="757.706" y1="188.299" x2="835.052" y2="188.299" gradientUnits="userSpaceOnUse" spreadMethod="reflect" id="fill8"><stop offset="0" stop-color="#23C3B4"/><stop offset="0.1" stop-color="#23C3B4"/><stop offset="0.25" stop-color="#1B96AF"/><stop offset="0.5" stop-color="#0037E6"/><stop offset="0.75" stop-color="#6E2E9E"/><stop offset="0.9" stop-color="#9B317F"/><stop offset="1" stop-color="#9B317F"/></linearGradient><linearGradient x1="-1.66667" y1="0.0332283" x2="58.3596" y2="0.0332283" gradientUnits="userSpaceOnUse" spreadMethod="reflect" id="stroke9"><stop offset="0"/><stop offset="0.16"/><stop offset="0.5" stop-color="#23C3B4"/><stop offset="0.62" stop-color="#1B96AF"/><stop offset="1" stop-color="#0037E6"/></linearGradient></defs><g clip-path="url(#clip1)"><rect x="0" y="0" width="945" height="377.933" fill="#FFFFFF"/><path d="M72.5 213.334C81.8148 213.732 80.829 213.934 86.893 212.717 93.3083 211.429 101.896 200.846 108.884 201.1 115.872 201.354 123.404 214.189 128.822 214.24 134.241 214.291 137.559 194.149 141.393 201.407 145.227 208.664 145.144 265.206 151.829 257.785 158.514 250.364 173.014 162.852 181.502 156.881 189.989 150.911 200.225 212.178 202.754 221.962 206.547 231.148 215.577 205.781 221.668 204.176 227.759 202.571 232.993 210.733 239.299 212.333 245.604 213.933 254.829 213.606 259.5 213.775" stroke="#000000" stroke-width="3.33392" stroke-miterlimit="8" fill="none" fill-rule="evenodd"/><path d="M554.5 213.898C563.091 213.797 563.235 214.495 569.417 212.269 575.6 210.042 584.548 200.281 591.596 200.537 598.644 200.794 606.24 213.755 611.704 213.807 617.169 213.858 620.515 193.519 624.382 200.847 628.249 208.176 628.165 265.272 634.907 257.778 641.649 250.284 656.273 161.914 664.833 155.885 673.393 149.856 683.716 211.725 686.266 221.604 690.091 230.881 699.199 205.264 705.342 203.644 711.484 202.023 715.93 210.358 723.123 211.881 730.316 213.404 741.51 212.676 748.5 212.784" stroke="#000000" stroke-width="3.33392" stroke-miterlimit="8" fill="none" fill-rule="evenodd"/><path d="M259.5 214.321C269.573 214.251 292.909 214.706 304.77 211.778 316.631 208.851 321.859 203.319 330.664 196.756 339.468 190.193 348.484 180.593 357.599 172.401L385.35 147.604C395.268 138.768 407.91 123.118 420.362 127.12 432.814 131.123 448.618 165.363 460.06 171.617 471.502 177.872 479.046 159.878 489.015 164.647 498.984 169.415 512.735 192.314 519.875 200.227 527.015 208.14 527.45 209.915 531.853 212.126 536.256 214.337 542.02 213.855 546.295 214.245 550.569 214.634 556.049 214.342 557.5 214.462" stroke="#000000" stroke-width="3.33392" stroke-miterlimit="8" fill="none" fill-rule="evenodd"/><path d="M347.068 160.966C343.307 156.74 343.684 150.265 347.911 146.504 352.138 142.743 358.615 143.12 362.376 147.346 366.138 151.573 365.761 158.048 361.534 161.809 357.306 165.57 350.83 165.192 347.068 160.966Z" stroke="url(#stroke2)" stroke-width="2.0002" stroke-miterlimit="8" fill="none" fill-rule="evenodd"/><path d="M375.638 135.547C371.876 131.321 372.254 124.846 376.481 121.085 380.708 117.324 387.184 117.701 390.946 121.927 394.708 126.154 394.33 132.629 390.103 136.39 385.876 140.151 379.4 139.773 375.638 135.547Z" stroke="url(#stroke3)" stroke-width="2.0002" stroke-miterlimit="8" fill="none" fill-rule="evenodd"/><path d="M365.747 118.064 382.889 129.703" stroke="#000000" stroke-width="2.0002" stroke-linecap="round" stroke-miterlimit="8" fill="none" fill-rule="evenodd"/><path d="M0 0 10.2007 16.511" stroke="#000000" stroke-width="2.00016" stroke-linecap="round" stroke-miterlimit="8" fill="none" fill-rule="evenodd" transform="matrix(-0.747115 0.664726 0.664843 0.746983 351.406 135.614)"/><path d="M0 0 13.6544 0.000104995" stroke="#000000" stroke-width="2.00016" stroke-linecap="round" stroke-miterlimit="8" fill="none" fill-rule="evenodd" transform="matrix(-0.747115 0.664726 0.664843 0.746983 364.964 145.652)"/><path d="M365.149 144.914C364.396 144.069 364.472 142.774 365.317 142.022 366.163 141.27 367.458 141.345 368.21 142.191 368.963 143.036 368.887 144.331 368.042 145.083 367.196 145.835 365.901 145.76 365.149 144.914Z" stroke="#000000" stroke-width="2.0002" stroke-miterlimit="8" fill="none" fill-rule="evenodd"/><path d="M347.629 133.221 364.99 143.092" stroke="#000000" stroke-width="2.0002" stroke-miterlimit="8" fill="none" fill-rule="evenodd"/><path d="M368.688 119.772 350.946 135.557" stroke="#000000" stroke-width="2.0002" stroke-miterlimit="8" fill="none" fill-rule="evenodd"/><path d="M0 0 16.7543 14.7017" stroke="#000000" stroke-width="2.00016" stroke-miterlimit="8" fill="none" fill-rule="evenodd" transform="matrix(-0.747115 0.664726 0.664843 0.746983 369.058 119.909)"/><path d="M350.489 129.331 345.652 133.634" stroke="#000000" stroke-width="2.66693" stroke-linecap="round" stroke-miterlimit="8" fill="none" fill-rule="evenodd"/><path d="M369.69 113.855C371.047 113.325 372.617 114.007 373.197 115.379 373.676 116.511 373.337 117.795 372.374 118.502" stroke="#000000" stroke-width="2.00016" stroke-linecap="round" stroke-miterlimit="8" fill="none" fill-rule="evenodd"/><path d="M369.674 113.883 365.222 117.474" stroke="#000000" stroke-width="2.0002" stroke-linecap="round" stroke-miterlimit="8" fill="none" fill-rule="evenodd"/><path d="M307.103 196.471C303.341 192.245 303.718 185.77 307.945 182.009 312.173 178.248 318.649 178.625 322.41 182.852 326.172 187.078 325.795 193.553 321.568 197.314 317.34 201.075 310.864 200.698 307.103 196.471Z" stroke="url(#stroke4)" stroke-width="2.0002" stroke-miterlimit="8" fill="none" fill-rule="evenodd"/><path d="M335.621 170.918C331.859 166.691 332.236 160.216 336.464 156.455 340.691 152.694 347.167 153.072 350.929 157.298 354.69 161.524 354.313 168 350.086 171.761 345.859 175.522 339.382 175.144 335.621 170.918Z" stroke="url(#stroke5)" stroke-width="2.0002" stroke-miterlimit="8" fill="none" fill-rule="evenodd"/><path d="M325.692 153.469 342.834 165.108" stroke="#000000" stroke-width="2.0002" stroke-linecap="round" stroke-miterlimit="8" fill="none" fill-rule="evenodd"/><path d="M0 0 10.2007 16.511" stroke="#000000" stroke-width="2.00016" stroke-linecap="round" stroke-miterlimit="8" fill="none" fill-rule="evenodd" transform="matrix(-0.747115 0.664726 0.664843 0.746983 311.351 171.019)"/><path d="M0 0 13.6544 0.000104995" stroke="#000000" stroke-width="2.00016" stroke-linecap="round" stroke-miterlimit="8" fill="none" fill-rule="evenodd" transform="matrix(-0.747115 0.664726 0.664843 0.746983 324.909 181.056)"/><path d="M325.093 180.319C324.341 179.474 324.417 178.179 325.262 177.427 326.107 176.675 327.403 176.75 328.155 177.595 328.907 178.441 328.832 179.736 327.986 180.488 327.141 181.24 325.846 181.165 325.093 180.319Z" stroke="#000000" stroke-width="2.0002" stroke-miterlimit="8" fill="none" fill-rule="evenodd"/><path d="M307.574 168.626 324.935 178.496" stroke="#000000" stroke-width="2.0002" stroke-miterlimit="8" fill="none" fill-rule="evenodd"/><path d="M328.632 155.177 310.891 170.962" stroke="#000000" stroke-width="2.0002" stroke-miterlimit="8" fill="none" fill-rule="evenodd"/><path d="M0 0 16.7543 14.7017" stroke="#000000" stroke-width="2.00016" stroke-miterlimit="8" fill="none" fill-rule="evenodd" transform="matrix(-0.747115 0.664726 0.664843 0.746983 329.003 155.314)"/><path d="M310.434 164.736 305.597 169.039" stroke="#000000" stroke-width="2.66693" stroke-linecap="round" stroke-miterlimit="8" fill="none" fill-rule="evenodd"/><path d="M329.635 149.26C330.991 148.73 332.562 149.412 333.142 150.784 333.621 151.916 333.282 153.2 332.319 153.907" stroke="#000000" stroke-width="2.00016" stroke-linecap="round" stroke-miterlimit="8" fill="none" fill-rule="evenodd"/><path d="M329.619 149.288 325.167 152.879" stroke="#000000" stroke-width="2.0002" stroke-linecap="round" stroke-miterlimit="8" fill="none" fill-rule="evenodd"/><path d="M799 153.223C830.042 76.8198 951.104 153.223 799 251.456 646.896 153.223 767.958 76.8198 799 153.223Z" stroke="#000000" stroke-width="3.33392" stroke-miterlimit="8" fill="none" fill-rule="evenodd"/><rect x="746" y="212.962" width="22" height="11.9979" fill="#FFFFFF"/><rect x="731" y="199.965" width="25.9999" height="10.9981" fill="#FFFFFF"/><path d="M734.5 192.466 742.107 203.201" stroke="#000000" stroke-width="3.33392" stroke-linecap="round" stroke-linejoin="bevel" stroke-miterlimit="10" fill="none" fill-rule="evenodd"/><path d="M760.5 222.461 773.055 233.152" stroke="#000000" stroke-width="3.33392" stroke-linecap="round" stroke-linejoin="bevel" stroke-miterlimit="10" fill="none" fill-rule="evenodd"/><g clip-path="url(#clip6)" filter="url(#fx0)" transform="translate(757 159)"><g clip-path="url(#clip7)"><path d="M67.8655 18.4404C70.3829 18.4404 72.4842 18.771 74.1695 19.4322 75.8549 20.0934 77.2309 20.7866 78.2975 21.5118 79.1509 22.0664 79.5775 22.8129 79.5775 23.7514 79.5775 24.3487 79.3429 24.9246 78.8735 25.4791 78.4042 26.0337 77.8282 26.311 77.1455 26.311 76.6762 26.311 76.2068 26.183 75.7375 25.927 74.6282 25.3298 73.5402 24.8392 72.4735 24.4553 71.4069 24.0714 70.0415 23.8794 68.3775 23.8794 64.6655 23.8794 61.7748 24.9459 59.7055 27.0788 57.6362 29.2118 56.6015 31.9846 56.6015 35.3974 56.6015 38.8101 57.6362 41.583 59.7055 43.7159 61.7748 45.8489 64.6655 46.9153 68.3775 46.9153 70.0415 46.9153 71.4069 46.7127 72.4735 46.3075 73.5402 45.9022 74.6282 45.4223 75.7375 44.8677 76.2068 44.6118 76.6762 44.4838 77.1455 44.4838 77.8282 44.4838 78.4042 44.7611 78.8735 45.3156 79.3429 45.8702 79.5775 46.4461 79.5775 47.0433 79.5775 47.9818 79.1509 48.7284 78.2975 49.2829 77.2309 49.9655 75.8549 50.648 74.1695 51.3306 72.4842 52.0131 70.3829 52.3544 67.8655 52.3544 64.8362 52.3544 62.0202 51.6825 59.4175 50.3387 56.8148 48.995 54.7242 47.054 53.1455 44.5158 51.5668 41.9776 50.7775 38.9381 50.7775 35.3974 50.7775 31.814 51.5668 28.7639 53.1455 26.247 54.7242 23.7301 56.8148 21.7998 59.4175 20.456 62.0202 19.1122 64.8362 18.4404 67.8655 18.4404ZM16.3215 18.4404C18.0709 18.4404 19.7242 18.5897 21.2815 18.8883 22.8389 19.1869 24.2789 19.5708 25.6015 20.0401 26.1989 20.2107 26.6575 20.5413 26.9775 21.0319 27.2975 21.5225 27.4575 22.0024 27.4575 22.4717 27.4575 23.1542 27.2122 23.7514 26.7215 24.2633 26.2309 24.7752 25.6229 25.0312 24.8975 25.0312 24.7268 25.0312 24.5775 25.0205 24.4495 24.9992 24.3215 24.9779 24.1935 24.9459 24.0655 24.9032 23.0415 24.562 21.9215 24.2847 20.7055 24.0714 19.4895 23.8581 18.1775 23.7514 16.7695 23.7514 14.4228 23.7514 12.6095 24.178 11.3295 25.0312 10.0495 25.8844 9.40952 26.9509 9.40952 28.2306 9.40952 29.3398 9.86818 30.193 10.7855 30.7902 11.7028 31.3874 12.8975 31.8673 14.3695 32.2299 15.8415 32.5925 17.3989 32.9658 19.0415 33.3497 20.6842 33.7337 22.2415 34.2776 23.7135 34.9815 25.1855 35.6853 26.3802 36.6558 27.2975 37.8929 28.2149 39.1301 28.6735 40.7938 28.6735 42.8841 28.6735 45.4863 27.6389 47.7152 25.5695 49.5709 23.5002 51.4265 20.4175 52.3544 16.3215 52.3544 13.9748 52.3544 11.8522 52.0984 9.95352 51.5865 8.05485 51.0746 6.29485 50.3707 4.67352 49.4749 3.94818 48.963 3.58552 48.2591 3.58552 47.3633 3.58552 46.7234 3.82018 46.1368 4.28952 45.6036 4.75885 45.0703 5.35618 44.8037 6.08152 44.8037 6.46552 44.8037 6.84952 44.889 7.23352 45.0597 8.38552 45.5716 9.65485 46.0195 11.0415 46.4034 12.4282 46.7874 14.0602 46.9793 15.9375 46.9793 18.4122 46.9793 20.2149 46.5847 21.3455 45.7955 22.4762 45.0063 23.0415 43.8866 23.0415 42.4361 23.0415 41.4976 22.5829 40.7724 21.6655 40.2605 20.7482 39.7486 19.5535 39.3114 18.0815 38.9487 16.6095 38.5862 15.0628 38.2022 13.4415 37.797 11.8202 37.3917 10.2735 36.8371 8.80152 36.1332 7.32952 35.4294 6.13485 34.4695 5.21752 33.2538 4.30018 32.038 3.84152 30.4702 3.84152 28.5506 3.84152 25.6498 4.88685 23.2395 6.97752 21.3199 9.06818 19.4002 12.1828 18.4404 16.3215 18.4404ZM44.7935 4.36285C45.8602 4.36285 46.8629 4.48016 47.8015 4.71479 48.7402 4.94942 49.5935 5.25869 50.3615 5.64263 50.7455 5.81326 51.0869 6.10122 51.3855 6.50648 51.6842 6.91173 51.8335 7.37032 51.8335 7.88223 51.8335 8.47946 51.6095 9.03403 51.1615 9.54594 50.7135 10.0578 50.1482 10.3138 49.4655 10.3138 48.9535 10.3138 48.4415 10.2498 47.9295 10.1218 47.4175 9.99386 46.8629 9.92987 46.2655 9.92987 44.6869 9.92987 43.4175 10.3031 42.4575 11.0497 41.4975 11.7962 41.0175 13.2999 41.0175 15.5609L41.0175 19.0803 49.0175 19.0803C49.7429 19.0803 50.3402 19.3149 50.8095 19.7841 51.2789 20.2534 51.5135 20.8506 51.5135 21.5758 51.5135 22.2584 51.2789 22.8449 50.8095 23.3355 50.3402 23.8261 49.7429 24.0714 49.0175 24.0714L41.0175 24.0714 41.0175 49.1549C41.0175 49.9655 40.7402 50.648 40.1855 51.2026 39.6308 51.7572 38.9268 52.0344 38.0735 52.0344 37.2628 52.0344 36.5802 51.7572 36.0255 51.2026 35.4708 50.648 35.1935 49.9655 35.1935 49.1549L35.1935 24.0714 31.4175 24.0714C30.7348 24.0714 30.1482 23.8261 29.6575 23.3355 29.1669 22.8449 28.9215 22.2584 28.9215 21.5758 28.9215 20.8506 29.1669 20.2534 29.6575 19.7841 30.1482 19.3149 30.7348 19.0803 31.4175 19.0803L35.1935 19.0803 35.1935 15.3689C35.1935 12.6814 35.6735 10.5271 36.6335 8.90605 37.5935 7.28501 38.8202 6.12254 40.3135 5.41866 41.8069 4.71479 43.3002 4.36285 44.7935 4.36285Z" fill="#FF0000" fill-rule="evenodd"/></g></g><path d="M824.866 175.622C827.383 175.622 829.484 175.952 831.169 176.613 832.855 177.275 834.231 177.968 835.298 178.693 836.151 179.248 836.578 179.994 836.578 180.933 836.578 181.53 836.343 182.106 835.874 182.66 835.404 183.215 834.828 183.492 834.146 183.492 833.676 183.492 833.207 183.364 832.738 183.108 831.628 182.511 830.54 182.021 829.474 181.637 828.407 181.253 827.042 181.061 825.378 181.061 821.666 181.061 818.775 182.127 816.706 184.26 814.636 186.393 813.602 189.166 813.602 192.579 813.602 195.991 814.636 198.764 816.706 200.897 818.775 203.03 821.666 204.097 825.378 204.097 827.042 204.097 828.407 203.894 829.474 203.489 830.54 203.083 831.628 202.604 832.738 202.049 833.207 201.793 833.676 201.665 834.146 201.665 834.828 201.665 835.404 201.942 835.874 202.497 836.343 203.051 836.578 203.627 836.578 204.225 836.578 205.163 836.151 205.91 835.298 206.464 834.231 207.147 832.855 207.829 831.169 208.512 829.484 209.194 827.383 209.536 824.866 209.536 821.836 209.536 819.02 208.864 816.418 207.52 813.815 206.176 811.724 204.235 810.146 201.697 808.567 199.159 807.778 196.119 807.778 192.579 807.778 188.995 808.567 185.945 810.146 183.428 811.724 180.911 813.815 178.981 816.418 177.637 819.02 176.294 821.836 175.622 824.866 175.622ZM773.322 175.622C775.071 175.622 776.724 175.771 778.281 176.07 779.839 176.368 781.279 176.752 782.602 177.221 783.199 177.392 783.658 177.723 783.978 178.213 784.298 178.704 784.458 179.184 784.458 179.653 784.458 180.335 784.212 180.933 783.721 181.445 783.231 181.957 782.623 182.212 781.898 182.212 781.727 182.212 781.578 182.202 781.45 182.18 781.322 182.159 781.194 182.127 781.065 182.084 780.042 181.743 778.922 181.466 777.706 181.253 776.49 181.039 775.177 180.933 773.77 180.933 771.423 180.933 769.609 181.359 768.33 182.212 767.049 183.066 766.41 184.132 766.41 185.412 766.41 186.521 766.868 187.374 767.786 187.971 768.703 188.569 769.898 189.049 771.37 189.411 772.841 189.774 774.399 190.147 776.042 190.531 777.684 190.915 779.242 191.459 780.714 192.163 782.186 192.867 783.38 193.837 784.298 195.074 785.215 196.311 785.674 197.975 785.674 200.065 785.674 202.668 784.639 204.896 782.57 206.752 780.5 208.608 777.418 209.536 773.322 209.536 770.975 209.536 768.852 209.28 766.953 208.768 765.055 208.256 763.295 207.552 761.674 206.656 760.948 206.144 760.586 205.44 760.586 204.545 760.586 203.905 760.82 203.318 761.289 202.785 761.759 202.252 762.356 201.985 763.082 201.985 763.466 201.985 763.849 202.07 764.234 202.241 765.385 202.753 766.655 203.201 768.042 203.585 769.428 203.969 771.06 204.161 772.938 204.161 775.412 204.161 777.215 203.766 778.346 202.977 779.476 202.188 780.042 201.068 780.042 199.617 780.042 198.679 779.583 197.954 778.666 197.442 777.748 196.93 776.554 196.493 775.082 196.13 773.609 195.767 772.063 195.383 770.442 194.978 768.82 194.573 767.273 194.018 765.802 193.315 764.33 192.611 763.135 191.651 762.218 190.435 761.3 189.219 760.841 187.652 760.841 185.732 760.841 182.831 761.887 180.421 763.978 178.501 766.068 176.581 769.183 175.622 773.322 175.622ZM801.794 161.544C802.86 161.544 803.863 161.661 804.802 161.896 805.74 162.131 806.594 162.44 807.362 162.824 807.745 162.995 808.087 163.282 808.385 163.688 808.684 164.093 808.833 164.552 808.833 165.063 808.833 165.661 808.609 166.215 808.161 166.727 807.714 167.239 807.148 167.495 806.466 167.495 805.953 167.495 805.442 167.431 804.93 167.303 804.418 167.175 803.863 167.111 803.266 167.111 801.687 167.111 800.418 167.484 799.458 168.231 798.497 168.977 798.018 170.481 798.018 172.742L798.018 176.262 806.018 176.262C806.743 176.262 807.34 176.496 807.81 176.965 808.279 177.435 808.514 178.032 808.514 178.757 808.514 179.44 808.279 180.026 807.81 180.517 807.34 181.007 806.743 181.253 806.018 181.253L798.018 181.253 798.018 206.336C798.018 207.147 797.74 207.829 797.186 208.384 796.631 208.938 795.927 209.216 795.073 209.216 794.263 209.216 793.58 208.938 793.026 208.384 792.471 207.829 792.193 207.147 792.193 206.336L792.193 181.253 788.418 181.253C787.735 181.253 787.148 181.007 786.658 180.517 786.167 180.026 785.922 179.44 785.922 178.757 785.922 178.032 786.167 177.435 786.658 176.965 787.148 176.496 787.735 176.262 788.418 176.262L792.193 176.262 792.193 172.55C792.193 169.863 792.674 167.708 793.634 166.087 794.594 164.466 795.82 163.304 797.314 162.6 798.807 161.896 800.3 161.544 801.794 161.544Z" fill="url(#fill8)" fill-rule="evenodd"/><text fill="#000000" fill-opacity="0" font-family="Arial,Arial_MSFontService,sans-serif" font-size="47.9915" x="760.586" y="203.537">sfc</text><path d="M795 204.964 795 210.834" stroke="#0342E0" stroke-width="5.73435" stroke-linecap="round" stroke-linejoin="round" stroke-miterlimit="10" fill="none" fill-rule="evenodd"/><path d="M0 0 56.6929 0.0664567" stroke="url(#stroke9)" stroke-width="3.33333" stroke-linecap="round" stroke-miterlimit="8" fill="none" fill-rule="evenodd" transform="matrix(1.00018 0 0 -1 738.5 212.529)"/></g></svg>