<svg width="945" height="378" xmlns="http://www.w3.org/2000/svg" xmlns:xlink="http://www.w3.org/1999/xlink" overflow="hidden"><defs><filter id="fx0" x="-10%" y="-10%" width="120%" height="120%" filterUnits="userSpaceOnUse" primitiveUnits="userSpaceOnUse"><feComponentTransfer color-interpolation-filters="sRGB"><feFuncR type="discrete" tableValues="0 0"/><feFuncG type="discrete" tableValues="0 0"/><feFuncB type="discrete" tableValues="0 0"/><feFuncA type="linear" slope="0.301961" intercept="0"/></feComponentTransfer><feGaussianBlur stdDeviation="1.16727 1.16707"/></filter><clipPath id="clip1"><rect x="0" y="0" width="945" height="378"/></clipPath><clipPath id="clip2"><rect x="1" y="2" width="390" height="98"/></clipPath><linearGradient x1="458.492" y1="167.23" x2="843.56" y2="167.23" gradientUnits="userSpaceOnUse" spreadMethod="reflect" id="fill3"><stop offset="0" stop-color="#23C3B4"/><stop offset="0.1" stop-color="#23C3B4"/><stop offset="0.25" stop-color="#1B96AF"/><stop offset="0.5" stop-color="#0037E6"/><stop offset="0.75" stop-color="#6E2E9E"/><stop offset="0.9" stop-color="#9B317F"/><stop offset="1" stop-color="#9B317F"/></linearGradient><linearGradient x1="280.125" y1="135.49" x2="286.63" y2="111.882" gradientUnits="userSpaceOnUse" spreadMethod="reflect" id="stroke4"><stop offset="0" stop-color="#0037E6"/><stop offset="0.00917431" stop-color="#0136E5"/><stop offset="0.0183486" stop-color="#0336E5"/><stop offset="0.0275229" stop-color="#0536E5"/><stop offset="0.0366972" stop-color="#0736E5"/><stop offset="0.0458716" stop-color="#0936E5"/><stop offset="0.0550459" stop-color="#0B36E5"/><stop offset="0.0642202" stop-color="#0C36E5"/><stop offset="0.0733945" stop-color="#0E36E5"/><stop offset="0.0825688" stop-color="#1036E5"/><stop offset="0.0917431" stop-color="#1236E5"/><stop offset="0.100917" stop-color="#1336E5"/><stop offset="0.110092" stop-color="#1536E4"/><stop offset="0.119266" stop-color="#1736E4"/><stop offset="0.12844" stop-color="#1836E4"/><stop offset="0.137615" stop-color="#1A36E4"/><stop offset="0.146789" stop-color="#1C36E4"/><stop offset="0.155963" stop-color="#1D36E3"/><stop offset="0.165138" stop-color="#1F36E3"/><stop offset="0.174312" stop-color="#2136E3"/><stop offset="0.183486" stop-color="#2236E3"/><stop offset="0.192661" stop-color="#2436E2"/><stop offset="0.201835" stop-color="#2536E2"/><stop offset="0.211009" stop-color="#2736E2"/><stop offset="0.220183" stop-color="#2836E1"/><stop offset="0.229358" stop-color="#2A36E1"/><stop offset="0.238532" stop-color="#2C36E1"/><stop offset="0.247706" stop-color="#2D36E0"/><stop offset="0.256881" stop-color="#2E36E0"/><stop offset="0.266055" stop-color="#3036DF"/><stop offset="0.275229" stop-color="#3136DF"/><stop offset="0.284404" stop-color="#3336DF"/><stop offset="0.293578" stop-color="#3436DE"/><stop offset="0.302752" stop-color="#3636DE"/><stop offset="0.311927" stop-color="#3735DD"/><stop offset="0.321101" stop-color="#3835DD"/><stop offset="0.330275" stop-color="#3A35DC"/><stop offset="0.33945" stop-color="#3B35DC"/><stop offset="0.348624" stop-color="#3C35DC"/><stop offset="0.357798" stop-color="#3E35DB"/><stop offset="0.366972" stop-color="#3F35DB"/><stop offset="0.376147" stop-color="#4035DA"/><stop offset="0.385321" stop-color="#4135D9"/><stop offset="0.394495" stop-color="#4335D9"/><stop offset="0.40367" stop-color="#4435D8"/><stop offset="0.412844" stop-color="#4535D8"/><stop offset="0.422018" stop-color="#4635D7"/><stop offset="0.431193" stop-color="#4735D7"/><stop offset="0.440367" stop-color="#4835D6"/><stop offset="0.449541" stop-color="#4A34D5"/><stop offset="0.458716" stop-color="#4B34D5"/><stop offset="0.46789" stop-color="#4C34D4"/><stop offset="0.477064" stop-color="#4D34D4"/><stop offset="0.486239" stop-color="#4E34D3"/><stop offset="0.495413" stop-color="#4F34D2"/><stop offset="0.504587" stop-color="#5034D2"/><stop offset="0.513761" stop-color="#5134D1"/><stop offset="0.522936" stop-color="#5234D0"/><stop offset="0.53211" stop-color="#5334CF"/><stop offset="0.541284" stop-color="#5434CF"/><stop offset="0.550459" stop-color="#5534CE"/><stop offset="0.559633" stop-color="#5633CD"/><stop offset="0.568807" stop-color="#5733CD"/><stop offset="0.577982" stop-color="#5833CC"/><stop offset="0.587156" stop-color="#5933CB"/><stop offset="0.59633" stop-color="#5933CA"/><stop offset="0.605505" stop-color="#5A33C9"/><stop offset="0.614679" stop-color="#5B33C9"/><stop offset="0.623853" stop-color="#5C33C8"/><stop offset="0.633027" stop-color="#5D33C7"/><stop offset="0.642202" stop-color="#5D33C6"/><stop offset="0.651376" stop-color="#5E32C5"/><stop offset="0.66055" stop-color="#5F32C4"/><stop offset="0.669725" stop-color="#6032C4"/><stop offset="0.678899" stop-color="#6032C3"/><stop offset="0.688073" stop-color="#6132C2"/><stop offset="0.697248" stop-color="#6232C1"/><stop offset="0.706422" stop-color="#6232C0"/><stop offset="0.715596" stop-color="#6332BF"/><stop offset="0.724771" stop-color="#6432BE"/><stop offset="0.733945" stop-color="#6431BD"/><stop offset="0.743119" stop-color="#6531BC"/><stop offset="0.752294" stop-color="#6531BB"/><stop offset="0.761468" stop-color="#6631BA"/><stop offset="0.770642" stop-color="#6731B9"/><stop offset="0.779817" stop-color="#6731B8"/><stop offset="0.788991" stop-color="#6831B7"/><stop offset="0.798165" stop-color="#6831B6"/><stop offset="0.807339" stop-color="#6830B5"/><stop offset="0.816514" stop-color="#6930B4"/><stop offset="0.825688" stop-color="#6930B3"/><stop offset="0.834862" stop-color="#6A30B2"/><stop offset="0.844037" stop-color="#6A30B1"/><stop offset="0.853211" stop-color="#6A30B0"/><stop offset="0.862385" stop-color="#6B30AF"/><stop offset="0.87156" stop-color="#6B30AE"/><stop offset="0.880734" stop-color="#6B2FAD"/><stop offset="0.889908" stop-color="#6C2FAC"/><stop offset="0.899083" stop-color="#6C2FAB"/><stop offset="0.908257" stop-color="#6C2FA9"/><stop offset="0.917431" stop-color="#6C2FA8"/><stop offset="0.926606" stop-color="#6D2FA7"/><stop offset="0.93578" stop-color="#6D2FA6"/><stop offset="0.944954" stop-color="#6D2EA5"/><stop offset="0.954128" stop-color="#6D2EA4"/><stop offset="0.963303" stop-color="#6D2EA2"/><stop offset="0.972477" stop-color="#6D2EA1"/><stop offset="0.981651" stop-color="#6D2EA0"/><stop offset="0.990826" stop-color="#6D2E9F"/><stop offset="1" stop-color="#6E2E9E"/></linearGradient><linearGradient x1="290.282" y1="98.6267" x2="296.787" y2="75.0183" gradientUnits="userSpaceOnUse" spreadMethod="reflect" id="stroke5"><stop offset="0" stop-color="#6E2E9E"/><stop offset="0.0227273" stop-color="#6F2E9D"/><stop offset="0.0454545" stop-color="#712E9D"/><stop offset="0.0681818" stop-color="#732E9D"/><stop offset="0.0909091" stop-color="#752E9D"/><stop offset="0.113636" stop-color="#772E9D"/><stop offset="0.136364" stop-color="#782E9D"/><stop offset="0.159091" stop-color="#7A2E9D"/><stop offset="0.181818" stop-color="#7C2E9C"/><stop offset="0.204545" stop-color="#7D2F9C"/><stop offset="0.227273" stop-color="#7F2F9C"/><stop offset="0.25" stop-color="#802F9B"/><stop offset="0.272727" stop-color="#822F9B"/><stop offset="0.295455" stop-color="#832F9A"/><stop offset="0.318182" stop-color="#852F9A"/><stop offset="0.340909" stop-color="#862F99"/><stop offset="0.363636" stop-color="#872F99"/><stop offset="0.386364" stop-color="#882F98"/><stop offset="0.409091" stop-color="#8A2F98"/><stop offset="0.431818" stop-color="#8B2F97"/><stop offset="0.454545" stop-color="#8C3096"/><stop offset="0.477273" stop-color="#8D3096"/><stop offset="0.5" stop-color="#8E3095"/><stop offset="0.522727" stop-color="#8F3094"/><stop offset="0.545455" stop-color="#903094"/><stop offset="0.568182" stop-color="#913093"/><stop offset="0.590909" stop-color="#923092"/><stop offset="0.613636" stop-color="#933091"/><stop offset="0.636364" stop-color="#943090"/><stop offset="0.659091" stop-color="#95308F"/><stop offset="0.681818" stop-color="#95308E"/><stop offset="0.704545" stop-color="#96308D"/><stop offset="0.727273" stop-color="#97308C"/><stop offset="0.75" stop-color="#97308B"/><stop offset="0.772727" stop-color="#98308A"/><stop offset="0.795455" stop-color="#983089"/><stop offset="0.818182" stop-color="#993088"/><stop offset="0.840909" stop-color="#993087"/><stop offset="0.863636" stop-color="#993086"/><stop offset="0.886364" stop-color="#9A3085"/><stop offset="0.909091" stop-color="#9A3084"/><stop offset="0.931818" stop-color="#9A3082"/><stop offset="0.954545" stop-color="#9A3081"/><stop offset="0.977273" stop-color="#9A3080"/><stop offset="1" stop-color="#9B317F"/></linearGradient><linearGradient x1="262.66" y1="198.71" x2="269.164" y2="175.102" gradientUnits="userSpaceOnUse" spreadMethod="reflect" id="stroke6"><stop offset="0" stop-color="#23C3B4"/><stop offset="0.7" stop-color="#1B96AF"/><stop offset="1" stop-color="#1B96AF"/></linearGradient><linearGradient x1="272.817" y1="161.847" x2="279.321" y2="138.238" gradientUnits="userSpaceOnUse" spreadMethod="reflect" id="stroke7"><stop offset="0" stop-color="#1B96AF"/><stop offset="0.0106383" stop-color="#1A95B0"/><stop offset="0.0212766" stop-color="#1A95B1"/><stop offset="0.0319149" stop-color="#1A95B2"/><stop offset="0.0425532" stop-color="#1A95B3"/><stop offset="0.0531915" stop-color="#1A95B4"/><stop offset="0.0638298" stop-color="#1A95B5"/><stop offset="0.0744681" stop-color="#1A95B6"/><stop offset="0.0851064" stop-color="#1A95B7"/><stop offset="0.0957447" stop-color="#1A94B8"/><stop offset="0.106383" stop-color="#1A94B9"/><stop offset="0.117021" stop-color="#1A94BA"/><stop offset="0.12766" stop-color="#1A93BB"/><stop offset="0.138298" stop-color="#1A93BC"/><stop offset="0.148936" stop-color="#1A93BD"/><stop offset="0.159574" stop-color="#1A92BE"/><stop offset="0.170213" stop-color="#1A92BF"/><stop offset="0.180851" stop-color="#1992C0"/><stop offset="0.191489" stop-color="#1991C1"/><stop offset="0.202128" stop-color="#1991C1"/><stop offset="0.212766" stop-color="#1990C2"/><stop offset="0.223404" stop-color="#1990C3"/><stop offset="0.234043" stop-color="#198FC4"/><stop offset="0.244681" stop-color="#198FC5"/><stop offset="0.255319" stop-color="#188EC6"/><stop offset="0.265957" stop-color="#188EC7"/><stop offset="0.276596" stop-color="#188DC8"/><stop offset="0.287234" stop-color="#188CC8"/><stop offset="0.297872" stop-color="#188CC9"/><stop offset="0.308511" stop-color="#188BCA"/><stop offset="0.319149" stop-color="#178ACB"/><stop offset="0.329787" stop-color="#178ACC"/><stop offset="0.340426" stop-color="#1789CC"/><stop offset="0.351064" stop-color="#1788CD"/><stop offset="0.361702" stop-color="#1687CE"/><stop offset="0.37234" stop-color="#1687CF"/><stop offset="0.382979" stop-color="#1686CF"/><stop offset="0.393617" stop-color="#1685D0"/><stop offset="0.404255" stop-color="#1684D1"/><stop offset="0.414894" stop-color="#1583D1"/><stop offset="0.425532" stop-color="#1582D2"/><stop offset="0.43617" stop-color="#1581D3"/><stop offset="0.446809" stop-color="#1581D3"/><stop offset="0.457447" stop-color="#1480D4"/><stop offset="0.468085" stop-color="#147FD5"/><stop offset="0.478723" stop-color="#147ED5"/><stop offset="0.489362" stop-color="#137DD6"/><stop offset="0.5" stop-color="#137CD7"/><stop offset="0.510638" stop-color="#137BD7"/><stop offset="0.521277" stop-color="#1379D8"/><stop offset="0.531915" stop-color="#1278D8"/><stop offset="0.542553" stop-color="#1277D9"/><stop offset="0.553191" stop-color="#1276D9"/><stop offset="0.56383" stop-color="#1175DA"/><stop offset="0.574468" stop-color="#1174DA"/><stop offset="0.585106" stop-color="#1173DB"/><stop offset="0.595745" stop-color="#1072DB"/><stop offset="0.606383" stop-color="#1070DC"/><stop offset="0.617021" stop-color="#106FDC"/><stop offset="0.62766" stop-color="#0F6EDD"/><stop offset="0.638298" stop-color="#0F6DDD"/><stop offset="0.648936" stop-color="#0E6BDE"/><stop offset="0.659574" stop-color="#0E6ADE"/><stop offset="0.670213" stop-color="#0E69DF"/><stop offset="0.680851" stop-color="#0D67DF"/><stop offset="0.691489" stop-color="#0D66DF"/><stop offset="0.702128" stop-color="#0D65E0"/><stop offset="0.712766" stop-color="#0C63E0"/><stop offset="0.723404" stop-color="#0C62E1"/><stop offset="0.734043" stop-color="#0B60E1"/><stop offset="0.744681" stop-color="#0B5FE1"/><stop offset="0.755319" stop-color="#0B5DE2"/><stop offset="0.765957" stop-color="#0A5CE2"/><stop offset="0.776596" stop-color="#0A5AE2"/><stop offset="0.787234" stop-color="#0959E2"/><stop offset="0.797872" stop-color="#0957E3"/><stop offset="0.808511" stop-color="#0856E3"/><stop offset="0.819149" stop-color="#0854E3"/><stop offset="0.829787" stop-color="#0753E4"/><stop offset="0.840426" stop-color="#0751E4"/><stop offset="0.851064" stop-color="#074FE4"/><stop offset="0.861702" stop-color="#064EE4"/><stop offset="0.87234" stop-color="#064CE4"/><stop offset="0.882979" stop-color="#054AE5"/><stop offset="0.893617" stop-color="#0549E5"/><stop offset="0.904255" stop-color="#0447E5"/><stop offset="0.914894" stop-color="#0445E5"/><stop offset="0.925532" stop-color="#0343E5"/><stop offset="0.93617" stop-color="#0342E5"/><stop offset="0.946809" stop-color="#0240E5"/><stop offset="0.957447" stop-color="#023EE5"/><stop offset="0.968085" stop-color="#013CE5"/><stop offset="0.978723" stop-color="#013AE5"/><stop offset="0.989362" stop-color="#0038E5"/><stop offset="1" stop-color="#0037E6"/></linearGradient></defs><g clip-path="url(#clip1)"><rect x="0" y="0" width="945" height="377.933"/><g clip-path="url(#clip2)" filter="url(#fx0)" transform="translate(457 126)"><g><path d="M160.363 31.0028C159.152 31.0028 157.604 31.7864 155.718 33.3536 152.97 35.7475 150.174 38.7511 147.328 42.3644 144.483 45.9778 142.134 49.5239 140.282 53.003 138.43 56.482 137.504 59.1839 137.504 61.1086 137.504 62.3074 138.016 62.9068 139.041 62.9068 141.937 62.9068 144.757 61.8095 147.501 59.6149 150.245 57.4203 152.747 54.7347 155.008 51.5581 157.268 48.3815 159.765 44.4887 162.497 39.8796 163.136 38.283 163.456 36.527 163.456 34.6115 163.456 33.6189 163.171 32.7693 162.6 32.0627 162.03 31.3561 161.284 31.0028 160.363 31.0028ZM63.6879 28.036C64.3616 28.036 65.0221 28.2301 65.6692 28.6182 66.3164 29.0064 66.64 29.5368 66.64 30.2095 66.64 30.5101 66.4518 30.918 66.0756 31.4331 65.6993 31.9481 65.4396 32.3037 65.2966 32.4999 63.323 34.8782 61.6969 37.2854 60.4181 39.7215 58.9368 42.4197 57.7618 45.1699 56.8933 47.9721 56.0248 50.7743 55.5905 53.8297 55.5905 57.1383 55.5905 61.1562 58.0595 63.1652 62.9976 63.1652 65.3919 63.1652 67.6323 62.4609 69.7186 61.0522 71.805 59.6435 73.4769 57.9143 74.7346 55.8646 75.9923 53.8148 76.6211 51.9664 76.6211 50.3195 76.6211 48.5341 76.006 46.9463 74.7759 45.5559 73.5457 44.1656 71.805 42.6543 69.5536 41.022 67.9907 39.8809 66.821 38.9223 66.0446 38.146 65.2682 37.3697 64.88 36.6228 64.88 35.9051 64.88 34.8906 65.4843 34.1166 66.6929 33.5832 67.9016 33.0498 69.2309 32.7831 70.6811 32.7831 71.5208 32.7831 72.1794 32.8729 72.657 33.0525 73.1346 33.2322 73.3734 33.6079 73.3734 34.1798 73.3734 34.496 73.2728 34.7836 73.0715 35.0425 72.8704 35.3014 72.7697 35.4166 72.7697 35.3882 72.7697 35.3442 73.2349 35.7173 74.1654 36.5073 76.5432 38.4677 78.5452 40.4719 80.1714 42.5198 81.7975 44.5677 82.6106 46.9953 82.6106 49.8026 82.6106 52.1946 81.7389 54.924 79.9954 57.9906 78.2519 61.0573 75.7913 63.6842 72.6137 65.8714 69.4361 68.0587 65.7989 69.1523 61.7024 69.1523 57.5719 69.1523 54.5077 67.9975 52.5098 65.6879 50.5119 63.3783 49.513 60.5284 49.513 57.1383 49.513 54.2907 50.0208 50.8064 51.0365 46.6853 52.0522 42.5642 53.4831 38.8893 55.3292 35.6604 55.4502 35.4203 55.9514 34.5251 56.8328 32.9748 57.7142 31.4246 58.7353 30.2139 59.8963 29.3427 61.0573 28.4716 62.3211 28.036 63.6879 28.036ZM315.314 26.0509C316.421 26.0509 317.115 27.545 317.396 30.5333 317.676 33.5215 317.961 38.0993 318.248 44.2664L318.569 48.5144C318.808 51.5316 318.984 53.9228 319.097 55.6882L319.122 56.1005 321.038 51.2698C323.311 45.7061 325.503 40.8467 327.614 36.6915 330.429 31.1512 333.293 28.3811 336.206 28.3811 338.465 28.3811 339.951 30.0045 340.663 33.2512 341.375 36.4979 341.818 40.5106 341.993 45.2892 342.175 50.7919 342.266 58.453 342.266 68.2724 342.266 69.2338 341.884 70.0381 341.122 70.6851 340.36 71.3322 339.469 71.6557 338.45 71.6557 337.696 71.6557 337.016 71.4607 336.409 71.0708 335.801 70.6808 335.498 70.0935 335.498 69.309 335.498 66.9169 335.671 63.2463 336.016 58.2972 336.362 53.008 336.535 48.6226 336.535 45.1408 336.535 41.801 336.446 39.1851 336.269 37.293 336.092 35.4008 335.898 34.4548 335.687 34.4548 334.094 34.4548 332.173 36.801 329.924 41.4935 327.675 46.186 325.061 52.4847 322.082 60.3896L320.787 63.8485C320.482 64.6147 319.985 65.2157 319.296 65.6515 318.607 66.0873 317.884 66.3052 317.128 66.3052 316.281 66.3052 315.643 66.1975 315.213 65.9821 314.784 65.7667 314.524 65.2104 314.434 64.3131L313.744 57.2345 312.454 44.8521C312.054 39.9368 311.563 35.5821 310.982 31.7877 310.808 30.9812 310.722 30.3113 310.722 29.7778 310.722 28.668 311.192 27.7693 312.133 27.0819 313.074 26.3946 314.134 26.0509 315.314 26.0509ZM246.76 25.7924C247.61 25.7924 248.401 26.2129 249.132 27.0538 249.863 27.8947 250.229 28.7161 250.229 29.518 250.229 30.8699 249.898 33.8609 249.236 38.4911 248.558 43.4613 248.191 46.2566 248.135 46.8771 247.388 53.9323 246.86 59.2774 246.551 62.9123 246.241 66.5471 246.086 69.8878 246.086 72.9342 246.086 75.3822 246.264 77.2902 246.619 78.658 246.975 80.0259 247.378 81.1445 247.828 82.0138 248.278 82.8831 248.503 83.453 248.503 83.7233 248.503 84.6252 247.927 85.3281 246.775 85.8322 245.622 86.3363 244.495 86.5883 243.392 86.5883 242.165 86.5883 241.308 85.456 240.823 83.1913 240.338 80.9266 240.095 77.6226 240.095 73.2793 240.095 69.9991 240.419 65.566 241.066 59.9799L242.34 49.2142C241.855 51.9573 240.423 54.7579 238.046 57.616 235.669 60.4741 233.135 61.9032 230.444 61.9032 227.813 61.9032 225.562 59.8516 223.691 55.7484 221.82 51.6452 220.375 47.0858 219.354 42.0702 218.333 37.0547 217.823 33.36 217.823 30.9863 217.823 29.0194 218.548 28.036 219.998 28.036 221.774 28.036 222.863 29.3993 223.262 32.1259 225.399 47.7551 228.167 55.5697 231.566 55.5697 232.846 55.5697 234.025 55.0056 235.101 53.8773 236.177 52.7491 237.509 50.9092 239.097 48.3577 239.818 47.1919 240.599 45.6304 241.438 43.6732 242.278 41.716 242.927 40.0794 243.384 38.7633L243.988 30.0679C244.103 28.7362 244.321 27.6907 244.641 26.9314 244.962 26.1721 245.668 25.7924 246.76 25.7924ZM161.227 25.1875C162.315 25.1875 163.414 25.514 164.523 26.1671 165.633 26.8201 166.572 27.7233 167.341 28.8767 168.11 30.0301 168.495 31.3373 168.495 32.7982 168.495 34.743 168.006 36.1476 167.028 37.0118L167.479 36.6681C168.744 36.6681 169.452 37.6946 169.605 39.7476 169.661 40.6586 169.732 42.5312 169.819 45.3655 169.906 48.1998 169.978 50.5376 170.035 52.3789 170.093 54.2742 170.15 56.1106 170.208 57.8882 170.266 59.6658 170.321 61.0357 170.375 61.998 170.416 62.2895 170.645 62.6588 171.063 63.1061 171.48 63.5533 171.689 64.0098 171.689 64.4753 171.689 65.3295 171.333 66.3084 170.622 67.4118 169.911 68.5153 169.11 69.067 168.22 69.067 166.85 69.067 165.857 68.3487 165.241 66.9121 164.626 65.4755 164.318 63.8865 164.318 62.1451 164.318 60.7557 164.404 56.6085 164.578 49.7036L164.663 46.4358C164.663 45.3946 164.687 44.7384 164.734 44.4671 162.507 48.541 160.25 52.2192 157.963 55.5016 155.677 58.7841 152.752 61.8942 149.19 64.8321 145.628 67.77 141.842 69.2389 137.832 69.2389 135.71 69.2389 134.069 68.576 132.909 67.2503 131.748 65.9246 131.168 64.2229 131.168 62.1451 131.168 59.7274 132.225 56.4786 134.339 52.3988 136.454 48.319 139.135 44.2059 142.382 40.0597 145.63 35.9134 148.904 32.4852 152.203 29.7751 154.36 28.0264 156.125 26.8246 157.497 26.1698 158.869 25.515 160.112 25.1875 161.227 25.1875ZM369.961 24.7559C371.464 24.7559 372.62 25.2831 373.428 26.3375 374.236 27.392 374.64 28.596 374.64 29.9497 374.64 32.0906 374.03 33.1611 372.81 33.1611 372.303 33.1611 371.892 32.8972 371.575 32.3693 371.259 31.8414 370.976 31.4528 370.727 31.2035 370.478 30.9542 370.28 30.8295 370.134 30.8295 367.461 30.8295 364.671 32.4078 361.763 35.5642 358.856 38.7206 356.434 42.4465 354.497 46.7417 352.559 51.0369 351.59 54.5313 351.59 57.2249 351.59 58.6528 351.743 59.6115 352.049 60.1009 352.355 60.5903 352.801 60.835 353.386 60.835 354.542 60.835 356.042 60.0757 357.886 58.557 359.73 57.0384 361.996 54.5633 364.685 51.132 367.05 48.1497 369.215 44.65 371.181 40.6329 373.148 36.6159 374.642 32.7886 375.665 29.151 375.829 28.6625 376.111 28.2395 376.514 27.8821 376.916 27.5246 377.408 27.3459 377.989 27.3459 378.672 27.3459 379.392 27.5652 380.15 28.0037 380.908 28.4423 381.286 28.9759 381.286 29.6046 381.286 29.9172 381.223 30.2645 381.096 30.6467 380.969 31.0289 380.917 31.1943 380.941 31.143 381.334 34.0181 382.247 38.6492 383.679 45.0363 384.843 50.0606 385.699 54.1759 386.248 57.3823 386.797 60.5887 387.071 63.7298 387.071 66.8056 387.071 71.4174 386.149 75.6262 384.306 79.432 382.462 83.2378 380.3 86.3221 377.817 88.6848 375.292 91.0934 372.643 93.0579 369.87 94.5784 367.097 96.0989 364.653 96.8591 362.537 96.8591 361.164 96.8591 360.17 96.4944 359.557 95.7648 358.943 95.0353 358.636 94.1861 358.636 93.2174 358.636 92.1689 360.033 91.1479 362.827 90.1544 366.797 88.8704 370.417 86.7629 373.687 83.8319 376.154 81.6397 377.974 79.1186 379.148 76.2687 380.321 73.4188 380.908 70.5234 380.908 67.5823 380.908 64.2215 380.692 61.0985 380.261 58.2133 379.829 55.3282 379.172 51.878 378.289 47.8628 377.219 43.2885 376.634 39.6825 376.534 37.0448 376.378 39.337 375.265 42.3766 373.196 46.1636 371.127 49.9506 368.662 53.5955 365.801 57.0984 363.102 60.4436 360.624 62.9581 358.368 64.6417 356.112 66.3253 353.876 67.1671 351.659 67.1671 349.599 67.1671 348.088 66.389 347.127 64.8328 346.167 63.2766 345.686 61.2296 345.686 58.6917 345.686 54.6655 346.914 49.9643 349.368 44.5881 351.823 39.2119 354.923 34.5625 358.668 30.6398 362.413 26.7172 366.177 24.7559 369.961 24.7559ZM298.796 24.6706C300.561 24.6706 301.653 25.3317 302.071 26.6537 302.489 27.9758 302.698 29.9323 302.698 32.5232L302.611 42.7074C302.611 49.1496 302.784 54.1266 303.13 57.6387 303.13 57.7542 303.38 59.507 303.88 62.8971 304.3 65.4175 304.51 67.0943 304.51 67.9274 304.51 68.82 304.155 69.4921 303.443 69.9435 302.732 70.3948 301.942 70.5898 301.073 70.5284 299.842 70.4404 299.023 69.0242 298.618 66.2797 298.213 63.5352 297.807 58.579 297.399 51.411 297.169 46.7405 296.967 42.1734 296.794 37.7095 296.622 33.2457 296.506 29.7962 296.449 27.361 296.449 26.5912 296.612 25.9503 296.938 25.4384 297.264 24.9266 297.884 24.6706 298.796 24.6706ZM270.867 22.9439C272.389 22.9439 273.689 23.4824 274.767 24.5593 275.359 25.1522 275.911 25.9269 276.421 26.8833 276.932 27.8397 277.187 28.7179 277.187 29.518 277.187 30.5243 277.03 31.8145 276.715 33.3886 276.4 34.9627 275.861 35.7498 275.098 35.7498 274.072 35.7498 273.439 35.3119 273.2 34.4362 272.961 33.5605 272.813 32.6364 272.755 31.664 272.588 30.2086 272.456 29.3462 272.361 29.0767 272.265 28.8073 272.257 28.6725 272.336 28.6725 269.944 28.6725 267.534 30.4803 265.104 34.096 262.675 37.7116 260.671 41.9557 259.093 46.8283 257.516 51.7009 256.727 55.4542 256.727 58.0882 256.727 61.3583 257.7 62.9934 259.645 62.9934 261.311 62.9934 262.851 62.567 264.263 61.7141 265.676 60.8613 267.428 59.5033 269.52 57.6401 272.108 54.776 274.271 52.1855 276.01 49.8686 276.055 49.7989 276.414 49.3219 277.086 48.4374 277.758 47.553 278.362 47.1108 278.896 47.1108 280.174 47.1108 280.813 47.6341 280.813 48.6808 280.813 49.2032 280.188 50.4081 278.939 52.2957 277.69 54.1832 276.256 55.9468 274.635 57.5864 272.017 61.0472 269.464 63.7969 266.975 65.8357 264.486 67.8744 261.842 68.8938 259.041 68.8938 256.548 68.8938 254.526 67.8499 252.976 65.7621 251.426 63.6743 250.651 61.2891 250.651 58.6065 250.651 54.8378 251.64 50.1018 253.619 44.3984 255.599 38.695 258.141 33.6934 261.246 29.3936 264.351 25.0938 267.558 22.9439 270.867 22.9439ZM97.8965 14.2266C99.5767 14.2266 100.417 15.4057 100.417 17.7638 100.416 17.6859 101.885 17.3801 104.823 16.8462 107.761 16.3123 111.081 15.8142 114.781 15.3518 118.481 14.8895 121.687 14.6583 124.4 14.6583 127.173 14.6583 128.56 15.3534 128.56 16.7438 128.56 17.5595 128.264 18.6295 127.671 19.9538 127.078 21.2782 126.275 21.9404 125.263 21.9404 124.764 21.9404 124.377 21.7855 124.102 21.4757 123.826 21.1659 123.653 20.9931 123.583 20.9574 123.243 20.8071 122.652 20.7319 121.809 20.7319 120.099 20.7319 116.584 21.1054 111.266 21.8524 105.948 22.5993 102.361 23.1758 100.503 23.5818L101.062 40.7223C103.506 39.9873 107.964 38.9264 114.438 37.5397 120.912 36.1531 124.722 35.4597 125.867 35.4597 126.545 35.4597 127.063 35.6084 127.42 35.9058 127.777 36.2032 127.955 36.6924 127.955 37.3734 127.955 39.6738 127.105 40.94 125.403 41.1718 123.742 41.3496 119.898 42.0872 113.869 43.3845 107.841 44.6818 103.673 45.6371 101.367 46.2502 101.367 47.065 101.381 49.5643 101.41 53.7481 101.438 57.932 101.505 61.2965 101.612 63.8416 101.665 64.8525 101.791 66.0146 101.991 67.328 102.191 68.6413 102.319 69.578 102.375 70.138 102.739 72.3202 102.921 73.6262 102.921 74.056 102.921 74.8241 102.563 75.9395 101.848 77.4022 101.133 78.8649 100.392 79.5963 99.6235 79.5963 98.9433 79.5963 98.3631 79.3159 97.8827 78.755 97.4024 78.1941 97.099 77.5992 96.9725 76.9705 96.3721 74.2622 95.955 69.967 95.7212 64.0849 95.4334 57.0031 95.2895 51.7588 95.2895 48.3522 95.2776 48.409 94.9576 48.5094 94.3297 48.6533 93.7018 48.7972 93.1055 48.898 92.5409 48.9557 91.7635 48.9557 90.9484 48.7619 90.0954 48.3742 89.2425 47.9865 88.816 47.3981 88.816 46.609 88.816 45.9005 89.0488 45.3772 89.5145 45.039 89.9802 44.7008 90.4371 44.452 90.8854 44.2925 91.3336 44.1331 91.6063 44.0377 91.7035 44.0066 93.7678 43.1469 94.992 42.6552 95.3761 42.5315L94.7216 24.7022C91.1164 25.3924 88.2614 25.7374 86.1567 25.7374 83.6185 25.7374 81.8644 25.1238 80.8946 23.8966 79.9019 22.5494 79.4055 21.3162 79.4055 20.1972 79.4055 19.1514 80.0728 18.6286 81.4075 18.6286 81.5954 18.6286 82.3083 18.83 83.5463 19.2328 84.7843 19.6356 85.8267 19.837 86.6737 19.837 88.4814 19.837 91.1232 19.5886 94.5992 19.0919 94.5992 19.3925 94.6306 19.1207 94.6934 18.2766 94.7562 17.4325 95.048 16.653 95.5686 15.9382 95.905 15.3314 96.2515 14.8945 96.6081 14.6273 96.9647 14.3602 97.3942 14.2266 97.8965 14.2266ZM199.687 11.5499C202.468 11.5499 204.604 12.535 206.098 14.505 207.591 16.475 208.338 18.8614 208.338 21.664 208.338 22.7538 208.137 23.8398 207.735 24.9222 207.334 26.0046 206.848 26.9722 206.279 27.825 205.71 28.6778 205.153 29.1042 204.609 29.1042 203.562 29.1042 203.038 28.552 203.038 27.4476 203.038 27.1919 203.139 26.7621 203.34 26.1581 203.541 25.5541 203.642 25.0918 203.642 24.771 203.642 23.4219 203.478 22.1479 203.151 20.9492 202.911 20.0381 202.434 19.285 201.72 18.6897 201.007 18.0945 200.243 17.7968 199.429 17.7968 195.662 17.7968 192.043 21.6265 188.572 29.2857 187.159 32.4476 185.971 36.0137 185.007 39.984 184.043 43.9543 183.561 47.7739 183.561 51.4426 183.561 53.9291 184.065 56.1785 185.071 58.1906 186.078 60.2028 187.499 61.7939 189.334 62.9638 191.169 64.1337 193.325 64.7187 195.803 64.7187 199.828 64.7187 203.5 63.7431 206.819 61.7918 210.138 59.8406 213.451 57.2964 216.759 54.1592 216.8 54.1179 217.199 53.4509 217.956 52.1582 218.713 50.8655 219.443 50.2191 220.147 50.2191 220.819 50.2191 221.278 50.4029 221.523 50.7704 221.768 51.1379 221.891 51.6209 221.891 52.2194 221.891 52.9755 221.336 54.1541 220.227 55.7553 217.701 59.1839 214.344 62.4753 210.156 65.6295 205.968 68.7836 201.328 70.3607 196.235 70.3607 190.823 70.3607 186.388 68.799 182.93 65.6755 179.473 62.5521 177.744 57.9517 177.744 51.8743 177.744 47.8298 178.441 43.2784 179.837 38.2202 181.232 33.162 182.864 28.7651 184.733 25.0294 186.655 21.2434 188.932 18.0502 191.563 15.4501 194.193 12.85 196.902 11.5499 199.687 11.5499ZM297.023 8.27114C298.158 8.64966 299.062 9.20873 299.736 9.94835 300.189 10.4011 300.738 11.0472 301.384 11.8868 302.03 12.7263 302.353 13.3096 302.353 13.6368 302.353 15.0867 301.11 15.8117 298.624 15.8117 297.44 15.8117 296.249 15.3328 295.051 14.3751 293.853 13.4173 293.254 12.5384 293.254 11.7383 293.254 10.8914 293.639 10.1019 294.409 9.36957 295.18 8.63728 296.051 8.27114 297.023 8.27114ZM38.6295 6.8029C41.4189 6.8029 42.9406 7.48203 43.1945 8.84029 43.3852 9.85579 43.4805 10.9368 43.4805 12.0833 43.4805 13.5333 42.8709 14.2582 41.6517 14.2582 41.1989 14.2582 40.7587 14.143 40.331 13.9125 39.9034 13.682 39.5714 13.5195 39.3349 13.4251 39.0956 13.3463 38.7468 13.2496 38.2885 13.135 37.8302 13.0205 37.2247 12.9632 36.4721 12.9632 33.6066 12.9632 30.1095 13.7264 25.9809 15.2528 21.8522 16.7793 18.3269 18.635 15.4051 20.8199 12.4832 23.0049 11.0222 25.0125 11.0222 26.8427 11.0222 28.3632 11.6628 29.6981 12.9438 30.8474 14.2248 31.9967 15.9945 32.9982 18.2527 33.8519 20.5109 34.7057 23.8991 35.8259 28.4174 37.2125 34.6938 39.0382 39.421 41.1611 42.5991 43.5811 45.7772 46.0011 47.3662 48.9956 47.3662 52.5645 47.3662 55.621 46.3531 58.6159 44.3268 61.5492 42.3005 64.4825 39.4857 66.8571 35.8822 68.6732 32.2788 70.4892 28.1877 71.3973 23.609 71.3973 19.7691 71.3973 16.6336 71.0614 14.2026 70.3896 11.7716 69.7178 10.5561 68.6097 10.5561 67.0654 10.5561 66.3514 11.0335 65.2209 11.9882 63.6739 12.9429 62.1268 13.8236 61.3533 14.6302 61.3533 15.9081 61.3533 16.547 61.7611 16.547 62.5768 16.547 62.9755 16.4462 63.2899 16.2445 63.5199 16.0428 63.7499 15.942 63.8672 15.942 63.8718 15.942 63.7362 16.2042 63.7942 16.7285 64.0457 17.2528 64.2973 18.2201 64.5588 19.6304 64.83 21.0407 65.1013 22.7987 65.237 24.9042 65.237 28.152 65.237 30.9868 64.6115 33.4086 63.3604 35.8304 62.1094 37.6917 60.5353 38.9925 58.6381 40.2932 56.741 40.9436 54.9176 40.9436 53.168 40.9436 50.9995 39.8271 49.0813 37.5941 47.4132 35.3611 45.7452 31.793 44.1303 26.8897 42.5686 21.3962 40.8483 17.2338 39.4195 14.4027 38.2821 11.5716 37.1447 9.22992 35.6962 7.3778 33.9365 5.52567 32.1768 4.59961 29.985 4.59961 27.361 4.59961 23.9745 6.45173 20.6834 10.156 17.4875 13.8602 14.2917 18.3792 11.7119 23.7128 9.74832 29.0464 7.78471 34.0187 6.8029 38.6295 6.8029ZM289.163 5.33603C290.071 5.33603 290.631 5.69852 290.845 6.42347 291.058 7.14842 291.165 8.22944 291.165 9.66652 291.165 9.67844 291.151 9.84157 291.122 10.1559 291.093 10.4703 291.078 11.0115 291.078 11.7795 290.043 26.9074 289.525 41.7107 289.525 56.1897 289.525 57.9549 289.942 59.8734 290.777 61.9451 291.611 64.0169 292.029 65.1481 292.029 65.3387 292.029 66.2946 291.543 66.9967 290.571 67.4448 289.599 67.893 288.583 68.1171 287.523 68.1171 286.412 68.1171 285.512 67.1845 284.825 65.3195 284.137 63.4544 283.794 60.785 283.794 57.3115 283.852 50.8006 283.952 42.9418 284.096 33.7351 284.24 24.5283 284.37 17.5906 284.485 12.9219 284.545 11.1778 284.89 9.47749 285.519 7.82091 286.149 6.16432 287.364 5.33603 289.163 5.33603Z" fill="#FF0000" fill-rule="evenodd"/></g></g><path d="M617.363 154.88C616.152 154.88 614.604 155.664 612.719 157.231 609.97 159.625 607.174 162.628 604.328 166.242 601.483 169.855 599.134 173.401 597.282 176.88 595.43 180.359 594.504 183.061 594.504 184.986 594.504 186.185 595.016 186.784 596.041 186.784 598.937 186.784 601.757 185.687 604.501 183.492 607.245 181.297 609.747 178.612 612.008 175.435 614.268 172.259 616.765 168.366 619.497 163.757 620.136 162.16 620.456 160.404 620.456 158.489 620.456 157.496 620.171 156.646 619.6 155.94 619.03 155.233 618.284 154.88 617.363 154.88ZM520.688 151.913C521.362 151.913 522.022 152.107 522.669 152.495 523.316 152.884 523.64 153.414 523.64 154.087 523.64 154.387 523.452 154.795 523.076 155.31 522.699 155.825 522.44 156.181 522.297 156.377 520.323 158.755 518.697 161.163 517.418 163.599 515.937 166.297 514.762 169.047 513.893 171.849 513.025 174.651 512.591 177.707 512.591 181.015 512.591 185.033 515.06 187.042 519.998 187.042 522.392 187.042 524.632 186.338 526.719 184.929 528.805 183.521 530.477 181.791 531.735 179.742 532.992 177.692 533.621 175.844 533.621 174.197 533.621 172.411 533.006 170.823 531.776 169.433 530.546 168.043 528.805 166.531 526.554 164.899 524.991 163.758 523.821 162.799 523.045 162.023 522.268 161.247 521.88 160.5 521.88 159.782 521.88 158.768 522.484 157.994 523.693 157.46 524.902 156.927 526.231 156.66 527.681 156.66 528.521 156.66 529.179 156.75 529.657 156.93 530.135 157.109 530.373 157.485 530.373 158.057 530.373 158.373 530.273 158.661 530.072 158.92 529.87 159.179 529.77 159.294 529.77 159.265 529.77 159.221 530.235 159.594 531.165 160.384 533.543 162.345 535.545 164.349 537.171 166.397 538.798 168.445 539.611 170.872 539.611 173.68 539.611 176.072 538.739 178.801 536.995 181.868 535.252 184.934 532.791 187.561 529.614 189.749 526.436 191.936 522.799 193.029 518.702 193.029 514.572 193.029 511.508 191.875 509.51 189.565 507.512 187.255 506.513 184.406 506.513 181.015 506.513 178.168 507.021 174.684 508.036 170.562 509.052 166.441 510.483 162.766 512.329 159.538 512.45 159.297 512.951 158.402 513.833 156.852 514.714 155.302 515.735 154.091 516.896 153.22 518.057 152.349 519.321 151.913 520.688 151.913ZM772.314 149.928C773.421 149.928 774.115 151.422 774.396 154.41 774.676 157.399 774.961 161.976 775.248 168.144L775.569 172.392C775.807 175.409 775.984 177.8 776.097 179.565L776.122 179.978 778.038 175.147C780.311 169.583 782.503 164.724 784.614 160.569 787.429 155.028 790.293 152.258 793.206 152.258 795.465 152.258 796.951 153.882 797.663 157.128 798.375 160.375 798.818 164.388 798.993 169.166 799.175 174.669 799.266 182.33 799.266 192.15 799.266 193.111 798.884 193.915 798.122 194.562 797.36 195.209 796.469 195.533 795.45 195.533 794.696 195.533 794.016 195.338 793.409 194.948 792.801 194.558 792.498 193.971 792.498 193.186 792.498 190.794 792.671 187.123 793.016 182.174 793.362 176.885 793.535 172.5 793.535 169.018 793.535 165.678 793.446 163.062 793.269 161.17 793.092 159.278 792.898 158.332 792.688 158.332 791.094 158.332 789.173 160.678 786.924 165.371 784.675 170.063 782.061 176.362 779.082 184.267L777.787 187.726C777.482 188.492 776.985 189.093 776.296 189.529 775.607 189.964 774.884 190.182 774.128 190.182 773.281 190.182 772.643 190.075 772.213 189.859 771.784 189.644 771.524 189.088 771.434 188.19L770.744 181.112 769.454 168.729C769.054 163.814 768.563 159.459 767.982 155.665 767.808 154.858 767.722 154.188 767.722 153.655 767.722 152.545 768.192 151.646 769.133 150.959 770.074 150.272 771.134 149.928 772.314 149.928ZM703.76 149.67C704.61 149.67 705.401 150.09 706.132 150.931 706.863 151.772 707.229 152.593 707.229 153.395 707.229 154.747 706.898 157.738 706.236 162.368 705.558 167.338 705.191 170.134 705.135 170.754 704.388 177.809 703.86 183.155 703.551 186.789 703.241 190.424 703.086 193.765 703.086 196.811 703.086 199.259 703.264 201.167 703.619 202.535 703.975 203.903 704.378 205.022 704.828 205.891 705.278 206.76 705.503 207.33 705.503 207.6 705.503 208.502 704.927 209.205 703.775 209.709 702.622 210.213 701.495 210.465 700.392 210.465 699.165 210.465 698.308 209.333 697.823 207.068 697.338 204.804 697.095 201.5 697.095 197.156 697.095 193.876 697.419 189.443 698.066 183.857L699.34 173.091C698.854 175.834 697.423 178.635 695.046 181.493 692.669 184.351 690.135 185.78 687.444 185.78 684.813 185.78 682.562 183.729 680.691 179.626 678.82 175.522 677.375 170.963 676.354 165.947 675.333 160.932 674.823 157.237 674.823 154.863 674.823 152.897 675.548 151.913 676.998 151.913 678.774 151.913 679.863 153.276 680.262 156.003 682.399 171.632 685.167 179.447 688.566 179.447 689.846 179.447 691.025 178.883 692.101 177.754 693.177 176.626 694.509 174.786 696.097 172.235 696.818 171.069 697.599 169.508 698.438 167.55 699.278 165.593 699.927 163.957 700.384 162.64L700.988 153.945C701.103 152.613 701.321 151.568 701.641 150.809 701.962 150.049 702.668 149.67 703.76 149.67ZM618.227 149.065C619.315 149.065 620.414 149.391 621.523 150.044 622.633 150.697 623.572 151.6 624.341 152.754 625.11 153.907 625.495 155.214 625.495 156.675 625.495 158.62 625.006 160.025 624.028 160.889L624.479 160.545C625.744 160.545 626.452 161.572 626.605 163.625 626.661 164.536 626.732 166.408 626.819 169.243 626.906 172.077 626.978 174.415 627.035 176.256 627.093 178.151 627.151 179.988 627.208 181.765 627.266 183.543 627.321 184.913 627.375 185.875 627.416 186.167 627.645 186.536 628.063 186.983 628.48 187.43 628.689 187.887 628.689 188.352 628.689 189.207 628.333 190.186 627.622 191.289 626.911 192.392 626.11 192.944 625.22 192.944 623.85 192.944 622.857 192.226 622.241 190.789 621.625 189.353 621.318 187.764 621.318 186.022 621.318 184.633 621.404 180.486 621.578 173.581L621.663 170.313C621.663 169.272 621.687 168.616 621.734 168.344 619.507 172.418 617.25 176.096 614.963 179.379 612.677 182.661 609.752 185.771 606.19 188.709 602.628 191.647 598.842 193.116 594.832 193.116 592.71 193.116 591.069 192.453 589.909 191.127 588.748 189.802 588.168 188.1 588.168 186.022 588.168 183.605 589.225 180.356 591.339 176.276 593.454 172.196 596.135 168.083 599.382 163.937 602.63 159.791 605.904 156.362 609.203 153.652 611.36 151.904 613.125 150.702 614.497 150.047 615.869 149.392 617.112 149.065 618.227 149.065ZM826.961 148.633C828.464 148.633 829.62 149.16 830.428 150.215 831.236 151.269 831.64 152.473 831.64 153.827 831.64 155.968 831.03 157.038 829.81 157.038 829.303 157.038 828.892 156.774 828.575 156.246 828.259 155.719 827.976 155.33 827.727 155.081 827.478 154.831 827.28 154.707 827.134 154.707 824.461 154.707 821.671 156.285 818.763 159.441 815.856 162.598 813.434 166.324 811.497 170.619 809.559 174.914 808.59 178.408 808.59 181.102 808.59 182.53 808.743 183.489 809.049 183.978 809.355 184.467 809.801 184.712 810.386 184.712 811.542 184.712 813.042 183.953 814.886 182.434 816.73 180.916 818.996 178.44 821.685 175.009 824.05 172.027 826.215 168.527 828.182 164.51 830.148 160.493 831.642 156.666 832.665 153.028 832.828 152.54 833.111 152.117 833.514 151.759 833.916 151.402 834.408 151.223 834.989 151.223 835.672 151.223 836.392 151.442 837.15 151.881 837.908 152.319 838.286 152.853 838.286 153.482 838.286 153.794 838.223 154.142 838.096 154.524 837.969 154.906 837.917 155.071 837.941 155.02 838.334 157.895 839.247 162.526 840.679 168.913 841.843 173.938 842.699 178.053 843.248 181.259 843.797 184.466 844.071 187.607 844.071 190.683 844.071 195.295 843.149 199.503 841.306 203.309 839.462 207.115 837.3 210.199 834.817 212.562 832.292 214.971 829.643 216.935 826.87 218.456 824.097 219.976 821.653 220.736 819.537 220.736 818.164 220.736 817.17 220.372 816.557 219.642 815.943 218.912 815.636 218.063 815.636 217.095 815.636 216.046 817.033 215.025 819.827 214.032 823.797 212.748 827.417 210.64 830.687 207.709 833.154 205.517 834.974 202.996 836.148 200.146 837.321 197.296 837.908 194.401 837.908 191.459 837.908 188.099 837.692 184.976 837.261 182.09 836.829 179.205 836.172 175.755 835.289 171.74 834.219 167.166 833.634 163.56 833.534 160.922 833.378 163.214 832.265 166.254 830.196 170.041 828.127 173.828 825.662 177.473 822.801 180.976 820.102 184.321 817.624 186.835 815.368 188.519 813.112 190.202 810.876 191.044 808.659 191.044 806.599 191.044 805.088 190.266 804.127 188.71 803.167 187.154 802.686 185.107 802.686 182.569 802.686 178.543 803.914 173.841 806.369 168.465 808.823 163.089 811.923 158.44 815.668 154.517 819.413 150.594 823.177 148.633 826.961 148.633ZM755.796 148.548C757.561 148.548 758.653 149.209 759.071 150.531 759.489 151.853 759.698 153.809 759.698 156.4L759.611 166.585C759.611 173.027 759.784 178.004 760.13 181.516 760.13 181.631 760.38 183.384 760.88 186.774 761.3 189.295 761.51 190.971 761.51 191.805 761.51 192.697 761.155 193.369 760.443 193.821 759.732 194.272 758.942 194.467 758.073 194.406 756.842 194.318 756.023 192.901 755.618 190.157 755.213 187.412 754.807 182.456 754.399 175.288 754.169 170.618 753.967 166.05 753.794 161.587 753.622 157.123 753.506 153.673 753.449 151.238 753.449 150.468 753.612 149.827 753.938 149.316 754.264 148.804 754.884 148.548 755.796 148.548ZM727.867 146.821C729.389 146.821 730.689 147.36 731.767 148.436 732.359 149.029 732.911 149.804 733.421 150.76 733.932 151.717 734.187 152.595 734.187 153.395 734.187 154.401 734.03 155.692 733.715 157.266 733.4 158.84 732.861 159.627 732.098 159.627 731.072 159.627 730.439 159.189 730.2 158.313 729.961 157.438 729.813 156.514 729.755 155.541 729.588 154.086 729.456 153.223 729.361 152.954 729.265 152.684 729.257 152.55 729.336 152.55 726.944 152.55 724.534 154.357 722.104 157.973 719.675 161.589 717.671 165.833 716.093 170.705 714.516 175.578 713.727 179.331 713.727 181.965 713.727 185.235 714.7 186.871 716.645 186.871 718.311 186.871 719.851 186.444 721.263 185.591 722.676 184.738 724.428 183.38 726.52 181.517 729.108 178.653 731.271 176.063 733.01 173.746 733.055 173.676 733.414 173.199 734.086 172.315 734.758 171.43 735.362 170.988 735.896 170.988 737.174 170.988 737.813 171.511 737.813 172.558 737.813 173.08 737.188 174.285 735.939 176.173 734.69 178.06 733.256 179.824 731.635 181.464 729.017 184.924 726.464 187.674 723.975 189.713 721.486 191.752 718.842 192.771 716.041 192.771 713.548 192.771 711.526 191.727 709.976 189.639 708.426 187.551 707.651 185.166 707.651 182.484 707.651 178.715 708.64 173.979 710.62 168.276 712.599 162.572 715.141 157.571 718.246 153.271 721.351 148.971 724.558 146.821 727.867 146.821ZM554.896 138.104C556.577 138.104 557.417 139.283 557.417 141.641 557.416 141.563 558.885 141.257 561.823 140.723 564.761 140.189 568.081 139.691 571.781 139.229 575.481 138.767 578.687 138.535 581.4 138.535 584.173 138.535 585.56 139.231 585.56 140.621 585.56 141.437 585.264 142.507 584.671 143.831 584.078 145.155 583.275 145.818 582.263 145.818 581.764 145.818 581.377 145.663 581.102 145.353 580.826 145.043 580.653 144.87 580.583 144.835 580.243 144.684 579.652 144.609 578.809 144.609 577.099 144.609 573.584 144.983 568.266 145.73 562.948 146.476 559.361 147.053 557.503 147.459L558.062 164.599C560.506 163.864 564.964 162.804 571.438 161.417 577.912 160.03 581.722 159.337 582.867 159.337 583.545 159.337 584.063 159.486 584.42 159.783 584.777 160.08 584.955 160.57 584.955 161.251 584.955 163.551 584.105 164.817 582.403 165.049 580.742 165.227 576.898 165.964 570.869 167.262 564.841 168.559 560.673 169.514 558.367 170.127 558.367 170.942 558.381 173.441 558.41 177.625 558.438 181.809 558.505 185.174 558.612 187.719 558.665 188.73 558.791 189.892 558.991 191.205 559.191 192.518 559.319 193.455 559.375 194.015 559.739 196.197 559.921 197.503 559.921 197.933 559.921 198.701 559.563 199.817 558.848 201.279 558.133 202.742 557.392 203.473 556.623 203.473 555.943 203.473 555.363 203.193 554.883 202.632 554.402 202.071 554.099 201.476 553.972 200.848 553.372 198.139 552.955 193.844 552.721 187.962 552.433 180.88 552.289 175.636 552.289 172.229 552.278 172.286 551.958 172.387 551.33 172.53 550.702 172.674 550.106 172.775 549.541 172.833 548.764 172.833 547.948 172.639 547.095 172.251 546.242 171.864 545.816 171.275 545.816 170.486 545.816 169.778 546.049 169.254 546.515 168.916 546.98 168.578 547.437 168.329 547.885 168.17 548.334 168.01 548.606 167.915 548.703 167.884 550.768 167.024 551.992 166.532 552.376 166.409L551.722 148.579C548.116 149.27 545.261 149.615 543.157 149.615 540.618 149.615 538.864 149.001 537.895 147.774 536.902 146.427 536.406 145.193 536.406 144.074 536.406 143.029 537.073 142.506 538.407 142.506 538.595 142.506 539.308 142.707 540.546 143.11 541.784 143.513 542.827 143.714 543.674 143.714 545.481 143.714 548.123 143.466 551.599 142.969 551.599 143.27 551.631 142.998 551.693 142.154 551.756 141.31 552.048 140.53 552.569 139.815 552.905 139.209 553.252 138.772 553.608 138.504 553.965 138.237 554.394 138.104 554.896 138.104ZM656.688 135.427C659.468 135.427 661.604 136.412 663.098 138.382 664.591 140.352 665.338 142.738 665.338 145.541 665.338 146.631 665.137 147.717 664.735 148.799 664.334 149.882 663.849 150.849 663.279 151.702 662.71 152.555 662.153 152.981 661.609 152.981 660.562 152.981 660.038 152.429 660.038 151.325 660.038 151.069 660.139 150.639 660.34 150.035 660.541 149.431 660.642 148.969 660.642 148.648 660.642 147.299 660.478 146.025 660.151 144.826 659.911 143.915 659.434 143.162 658.72 142.567 658.007 141.972 657.243 141.674 656.429 141.674 652.662 141.674 649.043 145.504 645.572 153.163 644.159 156.325 642.971 159.891 642.007 163.861 641.043 167.831 640.562 171.651 640.562 175.32 640.562 177.806 641.065 180.056 642.071 182.068 643.078 184.08 644.499 185.671 646.334 186.841 648.169 188.011 650.325 188.596 652.803 188.596 656.828 188.596 660.5 187.62 663.819 185.669 667.138 183.718 670.451 181.174 673.76 178.036 673.8 177.995 674.199 177.328 674.956 176.035 675.713 174.743 676.443 174.096 677.147 174.096 677.819 174.096 678.278 174.28 678.523 174.648 678.768 175.015 678.891 175.498 678.891 176.097 678.891 176.853 678.336 178.031 677.227 179.632 674.701 183.061 671.344 186.352 667.156 189.507 662.968 192.661 658.328 194.238 653.235 194.238 647.823 194.238 643.388 192.676 639.93 189.553 636.473 186.429 634.744 181.829 634.744 175.751 634.744 171.707 635.441 167.156 636.837 162.097 638.232 157.039 639.864 152.642 641.733 148.907 643.655 145.12 645.932 141.927 648.563 139.327 651.193 136.727 653.902 135.427 656.688 135.427ZM754.023 132.148C755.158 132.527 756.062 133.086 756.736 133.825 757.189 134.278 757.738 134.924 758.384 135.764 759.03 136.603 759.353 137.187 759.353 137.514 759.353 138.964 758.11 139.689 755.624 139.689 754.44 139.689 753.249 139.21 752.051 138.252 750.853 137.294 750.255 136.416 750.255 135.615 750.255 134.769 750.64 133.979 751.409 133.247 752.18 132.514 753.051 132.148 754.023 132.148ZM495.629 130.68C498.419 130.68 499.941 131.359 500.194 132.717 500.385 133.733 500.48 134.814 500.48 135.96 500.48 137.41 499.871 138.135 498.652 138.135 498.199 138.135 497.759 138.02 497.331 137.79 496.903 137.559 496.571 137.397 496.335 137.302 496.096 137.223 495.747 137.127 495.288 137.012 494.83 136.898 494.225 136.84 493.472 136.84 490.607 136.84 487.11 137.604 482.981 139.13 478.852 140.656 475.327 142.512 472.405 144.697 469.483 146.882 468.022 148.89 468.022 150.72 468.022 152.24 468.663 153.575 469.944 154.725 471.225 155.874 472.994 156.875 475.253 157.729 477.511 158.583 480.899 159.703 485.417 161.09 491.694 162.915 496.421 165.038 499.599 167.458 502.777 169.878 504.366 172.873 504.366 176.442 504.366 179.498 503.353 182.493 501.327 185.426 499.301 188.36 496.486 190.734 492.882 192.55 489.279 194.366 485.188 195.274 480.609 195.274 476.769 195.274 473.634 194.939 471.203 194.267 468.772 193.595 467.556 192.487 467.556 190.943 467.556 190.229 468.033 189.098 468.988 187.551 469.943 186.004 470.824 185.23 471.63 185.23 472.908 185.23 473.547 185.638 473.547 186.454 473.547 186.853 473.446 187.167 473.244 187.397 473.043 187.627 472.942 187.744 472.942 187.749 472.942 187.613 473.204 187.671 473.728 187.923 474.253 188.174 475.22 188.436 476.63 188.707 478.041 188.978 479.799 189.114 481.904 189.114 485.152 189.114 487.987 188.489 490.409 187.238 492.83 185.987 494.692 184.412 495.992 182.515 497.293 180.618 497.944 178.795 497.944 177.045 497.944 174.877 496.827 172.958 494.594 171.29 492.361 169.622 488.793 168.007 483.89 166.446 478.396 164.725 474.234 163.297 471.403 162.159 468.572 161.022 466.23 159.573 464.378 157.814 462.526 156.054 461.6 153.862 461.6 151.238 461.6 147.852 463.452 144.561 467.156 141.365 470.86 138.169 475.379 135.589 480.713 133.625 486.046 131.662 491.019 130.68 495.629 130.68ZM746.163 129.213C747.071 129.213 747.631 129.576 747.845 130.301 748.058 131.026 748.165 132.107 748.165 133.544 748.165 133.556 748.151 133.719 748.122 134.033 748.093 134.347 748.078 134.889 748.078 135.657 747.043 150.785 746.525 165.588 746.525 180.067 746.525 181.832 746.942 183.75 747.777 185.822 748.611 187.894 749.029 189.025 749.029 189.216 749.029 190.172 748.543 190.874 747.571 191.322 746.599 191.77 745.583 191.994 744.523 191.994 743.412 191.994 742.512 191.062 741.825 189.197 741.137 187.332 740.794 184.662 740.794 181.189 740.852 174.678 740.952 166.819 741.096 157.612 741.24 148.405 741.37 141.468 741.485 136.799 741.545 135.055 741.89 133.355 742.519 131.698 743.149 130.041 744.364 129.213 746.163 129.213Z" fill="url(#fill3)" fill-rule="evenodd"/><text fill="#000000" fill-opacity="0" font-family="Arial,Arial_MSFontService,sans-serif" font-size="91.5231" x="461.6" y="209.296">SoFaCycling</text><path d="M47 203.241C70.6667 204.208 68.1618 204.7 83.569 201.74 99.8689 198.609 121.687 172.877 139.443 173.494 157.198 174.111 176.335 205.319 190.101 205.444 203.868 205.568 212.298 156.595 222.04 174.24 231.783 191.886 231.571 329.359 248.555 311.316 265.54 293.273 302.382 80.4986 323.947 65.9821 345.512 51.4656 371.519 200.431 377.943 224.217 387.58 246.553 410.524 184.875 425.999 180.974 441.474 177.072 450.084 197.585 470.795 200.807 491.506 204.029 528.755 199.99 542 201.739" stroke="#FFFFFF" stroke-width="6.00106" stroke-miterlimit="8" fill="none" fill-rule="evenodd"/><path d="M715 202.82C746.513 202.492 794.487 204.429 826 199.965" stroke="#FFFFFF" stroke-width="6.00106" stroke-miterlimit="8" fill="none" fill-rule="evenodd"/><path d="M574 202.964 679 201.964" stroke="#FFFFFF" stroke-width="6.00106" stroke-miterlimit="8" fill="none" fill-rule="evenodd"/><path d="M280.657 133.562C275.201 132.06 271.997 126.42 273.5 120.966 275.003 115.511 280.643 112.308 286.099 113.81 291.554 115.313 294.758 120.952 293.255 126.407 291.753 131.861 286.112 135.065 280.657 133.562Z" stroke="url(#stroke4)" stroke-width="4.00005" stroke-miterlimit="8" fill="none" fill-rule="evenodd"/><path d="M290.814 96.6985C285.358 95.1959 282.154 89.5563 283.657 84.1019 285.16 78.6475 290.8 75.4439 296.256 76.9464 301.711 78.449 304.915 84.0887 303.412 89.543 301.91 94.9974 296.269 98.201 290.814 96.6985Z" stroke="url(#stroke5)" stroke-width="4.00005" stroke-miterlimit="8" fill="none" fill-rule="evenodd"/><path d="M273.006 87.4016 293.722 87.8525" stroke="#FFFFFF" stroke-width="4.00005" stroke-linecap="round" stroke-miterlimit="8" fill="none" fill-rule="evenodd"/><path d="M0 0 10.2 16.5099" stroke="#FFFFFF" stroke-width="4.00005" stroke-linecap="round" stroke-miterlimit="8" fill="none" fill-rule="evenodd" transform="matrix(-0.265624 0.964077 0.964247 0.265577 270.512 109.926)"/><path d="M0 0 13.6535 0.000104988" stroke="#FFFFFF" stroke-width="4.00005" stroke-linecap="round" stroke-miterlimit="8" fill="none" fill-rule="evenodd" transform="matrix(-0.265624 0.964077 0.964247 0.265577 287.349 110.982)"/><path d="M287.103 110.262C286.012 109.962 285.372 108.834 285.672 107.743 285.973 106.652 287.101 106.011 288.192 106.312 289.283 106.613 289.924 107.74 289.623 108.831 289.323 109.922 288.194 110.563 287.103 110.262Z" stroke="#FFFFFF" stroke-width="2.6667" stroke-miterlimit="8" fill="none" fill-rule="evenodd"/><path d="M266.041 109.971 285.979 108.819" stroke="#FFFFFF" stroke-width="4.00005" stroke-miterlimit="8" fill="none" fill-rule="evenodd"/><path d="M276.402 87.2369 270.095 110.129" stroke="#FFFFFF" stroke-width="4.00005" stroke-miterlimit="8" fill="none" fill-rule="evenodd"/><path d="M0 0 16.7532 14.7008" stroke="#FFFFFF" stroke-width="4.00005" stroke-miterlimit="8" fill="none" fill-rule="evenodd" transform="matrix(-0.265624 0.964077 0.964247 0.265577 276.788 87.1502)"/><path d="M266.326 105.152 264.606 111.393" stroke="#FFFFFF" stroke-width="4.00005" stroke-linecap="round" stroke-miterlimit="8" fill="none" fill-rule="evenodd"/><path d="M273.769 80.6967C274.335 78.5061 275.855 77.3288 277.164 78.0673 278.325 78.7232 278.951 80.6934 278.64 82.7189" stroke="#FFFFFF" stroke-width="3.66667" stroke-linecap="round" stroke-miterlimit="8" fill="none" fill-rule="evenodd"/><path d="M273.933 80.1736 271.925 87.4612" stroke="#FFFFFF" stroke-width="3.66671" stroke-linecap="round" stroke-miterlimit="8" fill="none" fill-rule="evenodd"/><path d="M263.191 196.782C257.736 195.28 254.531 189.64 256.034 184.186 257.537 178.731 263.178 175.528 268.633 177.03 274.088 178.533 277.293 184.172 275.79 189.627 274.287 195.081 268.646 198.285 263.191 196.782Z" stroke="url(#stroke6)" stroke-width="4.00005" stroke-miterlimit="8" fill="none" fill-rule="evenodd"/><path d="M273.348 159.918C267.893 158.416 264.688 152.776 266.191 147.322 267.694 141.867 273.335 138.664 278.79 140.166 284.245 141.669 287.45 147.309 285.947 152.763 284.444 158.217 278.803 161.421 273.348 159.918Z" stroke="url(#stroke7)" stroke-width="4.00005" stroke-miterlimit="8" fill="none" fill-rule="evenodd"/><path d="M255.54 150.621 276.256 151.072" stroke="#FFFFFF" stroke-width="4.00005" stroke-linecap="round" stroke-miterlimit="8" fill="none" fill-rule="evenodd"/><path d="M0 0 10.2 16.5099" stroke="#FFFFFF" stroke-width="4.00005" stroke-linecap="round" stroke-miterlimit="8" fill="none" fill-rule="evenodd" transform="matrix(-0.265624 0.964077 0.964247 0.265577 253.046 173.146)"/><path d="M0 0 13.6535 0.000104988" stroke="#FFFFFF" stroke-width="4.00005" stroke-linecap="round" stroke-miterlimit="8" fill="none" fill-rule="evenodd" transform="matrix(-0.265624 0.964077 0.964247 0.265577 269.883 174.201)"/><path d="M269.638 173.482C268.547 173.182 267.906 172.054 268.206 170.963 268.507 169.872 269.635 169.231 270.726 169.532 271.817 169.832 272.458 170.96 272.157 172.051 271.857 173.142 270.729 173.783 269.638 173.482Z" stroke="#FFFFFF" stroke-width="2.6667" stroke-miterlimit="8" fill="none" fill-rule="evenodd"/><path d="M248.575 173.191 268.513 172.038" stroke="#FFFFFF" stroke-width="4.00005" stroke-miterlimit="8" fill="none" fill-rule="evenodd"/><path d="M258.937 150.457 252.629 173.349" stroke="#FFFFFF" stroke-width="4.00005" stroke-miterlimit="8" fill="none" fill-rule="evenodd"/><path d="M0 0 16.7532 14.7008" stroke="#FFFFFF" stroke-width="4.00005" stroke-miterlimit="8" fill="none" fill-rule="evenodd" transform="matrix(-0.265624 0.964077 0.964247 0.265577 259.322 150.37)"/><path d="M248.86 168.372 247.14 174.613" stroke="#FFFFFF" stroke-width="4.00005" stroke-linecap="round" stroke-miterlimit="8" fill="none" fill-rule="evenodd"/><path d="M256.303 143.917C256.87 141.726 258.39 140.549 259.698 141.287 260.86 141.943 261.485 143.913 261.174 145.939" stroke="#FFFFFF" stroke-width="3.66667" stroke-linecap="round" stroke-miterlimit="8" fill="none" fill-rule="evenodd"/><path d="M256.467 143.393 254.459 150.681" stroke="#FFFFFF" stroke-width="3.66671" stroke-linecap="round" stroke-miterlimit="8" fill="none" fill-rule="evenodd"/></g></svg>